<?xml version="1.0" encoding="utf-8"?>
<!-- Generator: Adobe Illustrator 22.0.0, SVG Export Plug-In . SVG Version: 6.00 Build 0)  -->
<svg version="1.1" id="Layer_1" xmlns="http://www.w3.org/2000/svg" xmlns:xlink="http://www.w3.org/1999/xlink" x="0px" y="0px"
	 viewBox="0 0 469 360.2" style="enable-background:new 0 0 469 360.2;" xml:space="preserve">
<style type="text/css">
	.st0{fill:none;stroke:#FFFFFF;stroke-width:6.5388;stroke-miterlimit:10;}
	.st1{fill:#FFFFFF;}
	.st2{fill:#105F28;}
	.st3{stroke:#FFFFFF;stroke-width:4.541;stroke-miterlimit:10;}
	.st4{fill:none;stroke:#FFFFFF;stroke-width:4.3592;stroke-miterlimit:10;}
	.st5{fill:none;stroke:#FFFFFF;stroke-width:3.2694;stroke-linecap:round;stroke-miterlimit:10;}
	.st6{fill:none;stroke:#FFFFFF;stroke-width:7.2002;stroke-miterlimit:10;}
	.st7{fill:none;stroke:#FFFFFF;stroke-width:3.9641;stroke-linecap:round;stroke-miterlimit:10;}
	.st8{fill:none;stroke:#105F28;stroke-width:3.8932;stroke-miterlimit:10;}
	.st9{fill:none;stroke:#105F28;stroke-width:0.625;stroke-miterlimit:10;}
</style>
<g>
	<path class="st2" d="M220.2,306.3c-57.8,0-104.8-47-104.8-104.8c0-57.8,47-104.8,104.8-104.8c16.4,0,32.1,3.7,46.7,10.9l-2.9,5.9
		c-13.7-6.8-28.4-10.3-43.8-10.3c-54.2,0-98.3,44.1-98.3,98.3c0,54.2,44.1,98.3,98.3,98.3c52.2,0,95.3-40.8,98.1-92.8l6.5,0.4
		C321.8,262.8,275.8,306.3,220.2,306.3z"/>
</g>
<g>
	<path class="st2" d="M266.4,326.7l-2.2-6.2c37.8-13.2,67-44,78.1-82.5l6.3,1.8C337,280.3,306.2,312.7,266.4,326.7z"/>
</g>
<g>
	<path class="st2" d="M107.4,138.2l-5.7-3.2c24.1-42.8,69.5-69.4,118.5-69.4c29.4,0,57.4,9.3,81,26.8l-3.9,5.2
		c-22.4-16.7-49.1-25.5-77.1-25.5C173.5,72.1,130.3,97.4,107.4,138.2z"/>
</g>
<g>
	<path class="st2" d="M194.8,335c-24.2-4.6-46.8-15.7-65.2-32.3c-18.3-16.4-31.9-37.5-39.1-60.8l6.2-1.9
		c14.2,45.8,52.3,79.7,99.3,88.6L194.8,335z"/>
</g>
<path class="st2" d="M392.6,97.2c3.9,0,7.1,3.2,7.1,7.1v93.4c0,3.9-3.2,7.1-7.1,7.1H275.1c-3.9,0-7.1-3.2-7.1-7.1v-93.4
	c0-3.9,3.2-7.1,7.1-7.1H392.6 M392.6,92.7H275.1c-6.4,0-11.6,5.2-11.6,11.6v93.4c0,6.4,5.2,11.6,11.6,11.6h117.5
	c6.4,0,11.6-5.2,11.6-11.6v-93.4C404.2,97.9,399,92.7,392.6,92.7L392.6,92.7z"/>
<path class="st2" d="M392.6,97.2c3.9,0,7.1,3.2,7.1,7.1v93.4c0,3.9-3.2,7.1-7.1,7.1H275.1c-3.9,0-7.1-3.2-7.1-7.1v-93.4
	c0-3.9,3.2-7.1,7.1-7.1H392.6 M392.6,92.7H275.1c-6.4,0-11.6,5.2-11.6,11.6v93.4c0,6.4,5.2,11.6,11.6,11.6h117.5
	c6.4,0,11.6-5.2,11.6-11.6v-93.4C404.2,97.9,399,92.7,392.6,92.7L392.6,92.7z"/>
<rect x="283.9" y="110" class="st2" width="90.2" height="8.6"/>
<rect x="283.9" y="121.7" class="st2" width="49.1" height="8.6"/>
<rect x="283.9" y="147.7" class="st2" width="90.2" height="3.2"/>
<rect x="283.9" y="153.1" class="st2" width="49.1" height="3.2"/>
<g>
	<path class="st2" d="M294.6,173.3c4.1,0,7.5,3.4,7.5,7.5s-3.4,7.5-7.5,7.5s-7.5-3.4-7.5-7.5S290.4,173.3,294.6,173.3 M294.6,168.7
		c-6.7,0-12,5.4-12,12c0,6.7,5.4,12,12,12c6.7,0,12-5.4,12-12C306.6,174.1,301.2,168.7,294.6,168.7L294.6,168.7z"/>
</g>
<g>
	<path class="st2" d="M328.5,173.3c4.1,0,7.5,3.4,7.5,7.5s-3.4,7.5-7.5,7.5c-4.1,0-7.5-3.4-7.5-7.5S324.3,173.3,328.5,173.3
		 M328.5,168.7c-6.7,0-12,5.4-12,12c0,6.7,5.4,12,12,12c6.7,0,12-5.4,12-12C340.5,174.1,335.1,168.7,328.5,168.7L328.5,168.7z"/>
</g>
<g>
	<rect x="354.1" y="172.5" class="st2" width="18.1" height="4.5"/>
</g>
<g>
	<rect x="354.1" y="177.8" class="st2" width="18.1" height="4.5"/>
</g>
<g>
	<rect x="354.1" y="183" class="st2" width="18.1" height="4.5"/>
</g>
<g>
	<rect x="354.1" y="188.3" class="st2" width="18.1" height="4.5"/>
</g>
<g>
	<polygon class="st2" points="298.5,192.1 293.9,182.7 283.4,182.7 283.4,178.4 296.6,178.4 302.4,190.1 	"/>
</g>
<g>
	
		<rect x="327.4" y="175.2" transform="matrix(0.8223 -0.569 0.569 0.8223 -41.7103 221.2177)" class="st2" width="11.9" height="4.4"/>
</g>
<g>
	<rect x="328" y="180.3" transform="matrix(0.9754 -0.2203 0.2203 0.9754 -32.9142 77.2969)" class="st2" width="4.4" height="12"/>
</g>
<g>
	
		<rect x="318.8" y="180.5" transform="matrix(0.9284 -0.3715 0.3715 0.9284 -44.6785 133.3526)" class="st2" width="10" height="4.4"/>
</g>
<g>
	<g>
		<path class="st2" d="M282.8,253.4c-16.6-23.1-38.3-35.7-61.2-35.7c-0.1,0-0.2,0-0.3,0c-23.1,0.1-45.5,13.1-61.4,35.7l-5.3-3.8
			c17.2-24.3,41.5-38.3,66.7-38.5c0.1,0,0.2,0,0.3,0c25,0,48.7,13.6,66.5,38.4L282.8,253.4z"/>
	</g>
	<g>
		<path class="st2" d="M212.7,181.2c-3.3,0-6.8-0.8-10.3-2.5c-9.5-4.4-17.2-14.1-19.6-24.5l-0.5-2l2-0.6c10.3-2.9,21-0.1,29.2,7.6
			c6.3,5.9,9.7,13.3,8.6,18.6l-0.2,1l-0.9,0.5C218.4,180.5,215.6,181.2,212.7,181.2z M187.5,155.3c2.6,8.4,9,15.9,16.7,19.5
			c4.9,2.3,9.8,2.7,13.8,1.1c0-3.3-2.4-8.7-7.4-13.5C207.3,159.4,198.9,153,187.5,155.3z"/>
	</g>
	<g>
		<path class="st2" d="M220,216.5c-6.1-20.8-4.8-38.7,4.4-60l4,1.7c-8.9,20.6-10.1,37.1-4.2,57.1L220,216.5z"/>
	</g>
	<g>
		<path class="st2" d="M225.6,172.3c-0.5,0-0.9,0-1.4,0c-0.1,0-0.2,0-0.3,0c-1.1,0-2.3,0.1-3.2-0.8l-0.3-0.2l-0.2-0.4
			c-0.6-1.1-0.3-2.5,0.3-4.2c0.1-0.2,0.1-0.3,0.1-0.4c0.3-1.2,0.6-2.4,1-3.4c0.8-2.5,1.8-4.6,2.9-6.6c1.4-2.5,3.2-4.6,5.1-6.4
			c3.1-2.8,7.2-4.8,12-6c4.7-1.1,9.4-1.4,15.1-1.5l1.1,0l0.7,0.8c0.5,0.6,0.9,1.1-0.4,6.8c-0.6,2.4-1.2,4.4-2.1,6.4
			c-1.6,3.7-3.8,6.6-6.6,8.8c-2.7,2.2-6.2,3.9-10.9,5.2c-2.9,0.8-5.5,1.3-8.1,1.6c-1.4,0.2-2.9,0.3-4.2,0.3
			C226,172.3,225.8,172.3,225.6,172.3z M224.3,169.5L224.3,169.5L224.3,169.5z M224.7,167.9c0.5,0,1,0,1.4,0c1.2,0,2.5-0.1,3.8-0.3
			c2.3-0.3,4.8-0.8,7.5-1.5c4.1-1.1,7.1-2.5,9.3-4.3c2.2-1.8,4-4.3,5.3-7.2c0.7-1.7,1.3-3.5,1.8-5.6c0-0.2,0.2-1.2,0.4-2.2
			c-4.2,0.1-7.9,0.4-11.5,1.3c-4.1,1-7.6,2.7-10.2,5c-1.6,1.4-3,3.2-4.2,5.3c-1,1.7-1.8,3.6-2.6,5.8c-0.3,1-0.6,2-0.9,3.1
			C224.8,167.5,224.8,167.7,224.7,167.9z"/>
	</g>
	<g>
		<path class="st2" d="M194.6,250.6h-11.1c-0.9,0-1.6-0.7-1.6-1.6s0.7-1.6,1.6-1.6h11.1c0.9,0,1.6,0.7,1.6,1.6
			S195.5,250.6,194.6,250.6z"/>
	</g>
	<g>
		<path class="st2" d="M226.4,250.6h-11.1c-0.9,0-1.6-0.7-1.6-1.6s0.7-1.6,1.6-1.6h11.1c0.9,0,1.6,0.7,1.6,1.6
			S227.3,250.6,226.4,250.6z"/>
	</g>
	<g>
		<path class="st2" d="M210.5,238.4h-11.1c-0.9,0-1.6-0.7-1.6-1.6s0.7-1.6,1.6-1.6h11.1c0.9,0,1.6,0.7,1.6,1.6
			S211.4,238.4,210.5,238.4z"/>
	</g>
	<g>
		<path class="st2" d="M242.2,238.4h-11.1c-0.9,0-1.6-0.7-1.6-1.6s0.7-1.6,1.6-1.6h11.1c0.9,0,1.6,0.7,1.6,1.6
			S243.2,238.4,242.2,238.4z"/>
	</g>
	<g>
		<path class="st2" d="M258.1,250.6H247c-0.9,0-1.6-0.7-1.6-1.6s0.7-1.6,1.6-1.6h11.1c0.9,0,1.6,0.7,1.6,1.6S259,250.6,258.1,250.6z
			"/>
	</g>
</g>
<g>
	<path class="st2" d="M220,216.5c-5.1-17.3-5-32.5,0.3-49.2l4.2,1.3c-5.1,16-5.2,30-0.3,46.7L220,216.5z"/>
</g>
</svg>
