<?xml version="1.0" encoding="utf-8"?>
<!-- Generator: Adobe Illustrator 22.0.0, SVG Export Plug-In . SVG Version: 6.00 Build 0)  -->
<svg version="1.1" id="Layer_1" xmlns="http://www.w3.org/2000/svg" xmlns:xlink="http://www.w3.org/1999/xlink" x="0px" y="0px"
	 viewBox="0 0 469 360.2" style="enable-background:new 0 0 469 360.2;" xml:space="preserve">
<style type="text/css">
	.st0{fill:none;stroke:#FFFFFF;stroke-width:6.5388;stroke-miterlimit:10;}
	.st1{fill:#FFFFFF;}
	.st2{fill:#105F28;}
	.st3{stroke:#FFFFFF;stroke-width:4.541;stroke-miterlimit:10;}
	.st4{fill:none;stroke:#FFFFFF;stroke-width:4.3592;stroke-miterlimit:10;}
	.st5{fill:none;stroke:#FFFFFF;stroke-width:3.2694;stroke-linecap:round;stroke-miterlimit:10;}
	.st6{fill:none;stroke:#FFFFFF;stroke-width:7.2002;stroke-miterlimit:10;}
	.st7{fill:none;stroke:#FFFFFF;stroke-width:3.9641;stroke-linecap:round;stroke-miterlimit:10;}
	.st8{fill:none;stroke:#105F28;stroke-width:3.8932;stroke-miterlimit:10;}
	.st9{fill:none;stroke:#105F28;stroke-width:0.625;stroke-miterlimit:10;}
</style>
<g>
	<g>
		<g>
			<path class="st2" d="M218,306.3c-57.8,0-104.8-47-104.8-104.8c0-57.8,47-104.8,104.8-104.8c16.3,0,31.9,3.6,46.4,10.8l-2.9,5.9
				c-13.6-6.7-28.2-10.1-43.5-10.1c-54.2,0-98.3,44.1-98.3,98.3c0,54.2,44.1,98.3,98.3,98.3c52.2,0,95.3-40.8,98.1-92.8l6.5,0.4
				C319.6,262.8,273.6,306.3,218,306.3z"/>
		</g>
		<g>
			<path class="st2" d="M264.3,326.7l-2.2-6.2c37.8-13.2,67-44,78.1-82.5l6.3,1.8C334.8,280.3,304.1,312.7,264.3,326.7z"/>
		</g>
		<g>
			<path class="st2" d="M105.2,138.2l-5.7-3.2c24.1-42.8,69.5-69.4,118.5-69.4c29.2,0,57,9.1,80.4,26.4l-3.9,5.3
				c-22.3-16.4-48.8-25.1-76.6-25.1C171.3,72.1,128.1,97.4,105.2,138.2z"/>
		</g>
		<g>
			<path class="st2" d="M192.6,335c-24.2-4.6-46.8-15.7-65.2-32.3c-18.3-16.4-31.9-37.5-39.1-60.8l6.2-1.9
				c14.2,45.8,52.3,79.7,99.3,88.6L192.6,335z"/>
		</g>
		<g>
			<g>
				<path class="st2" d="M390.4,97.2c3.9,0,7.1,3.2,7.1,7.1v93.4c0,3.9-3.2,7.1-7.1,7.1H272.9c-3.9,0-7.1-3.2-7.1-7.1v-93.4
					c0-3.9,3.2-7.1,7.1-7.1H390.4 M390.4,92.7H272.9c-6.4,0-11.6,5.2-11.6,11.6v93.4c0,6.4,5.2,11.6,11.6,11.6h117.5
					c6.4,0,11.6-5.2,11.6-11.6v-93.4C402,97.9,396.8,92.7,390.4,92.7L390.4,92.7z"/>
			</g>
			<g>
				<path class="st2" d="M390.4,97.2c3.9,0,7.1,3.2,7.1,7.1v93.4c0,3.9-3.2,7.1-7.1,7.1H272.9c-3.9,0-7.1-3.2-7.1-7.1v-93.4
					c0-3.9,3.2-7.1,7.1-7.1H390.4 M390.4,92.7H272.9c-6.4,0-11.6,5.2-11.6,11.6v93.4c0,6.4,5.2,11.6,11.6,11.6h117.5
					c6.4,0,11.6-5.2,11.6-11.6v-93.4C402,97.9,396.8,92.7,390.4,92.7L390.4,92.7z"/>
			</g>
			<g>
				<g>
					<rect x="284" y="112.3" class="st2" width="85.7" height="4.1"/>
				</g>
				<g>
					<polygon class="st2" points="371.9,110 281.7,110 281.7,118.6 371.9,118.6 371.9,110 					"/>
				</g>
			</g>
			<g>
				<g>
					<rect x="284" y="124" class="st2" width="44.6" height="4.1"/>
				</g>
				<g>
					<polygon class="st2" points="330.8,121.7 281.7,121.7 281.7,130.3 330.8,130.3 330.8,121.7 					"/>
				</g>
			</g>
			<g>
				<g>
					<rect x="281.7" y="147.7" class="st2" width="90.2" height="3.2"/>
				</g>
				<g>
					<polygon class="st2" points="371.9,147.7 281.7,147.7 281.7,150.8 371.9,150.8 371.9,147.7 					"/>
				</g>
			</g>
			<g>
				<g>
					<rect x="281.7" y="153.1" class="st2" width="49.1" height="3.2"/>
				</g>
				<g>
					<polygon class="st2" points="330.8,153.1 281.7,153.1 281.7,156.3 330.8,156.3 330.8,153.1 					"/>
				</g>
			</g>
			<g>
				<path class="st2" d="M292.4,173.3c4.1,0,7.5,3.4,7.5,7.5s-3.4,7.5-7.5,7.5c-4.1,0-7.5-3.4-7.5-7.5S288.3,173.3,292.4,173.3
					 M292.4,168.7c-6.7,0-12,5.4-12,12c0,6.7,5.4,12,12,12c6.7,0,12-5.4,12-12C304.4,174.1,299.1,168.7,292.4,168.7L292.4,168.7z"/>
			</g>
			<g>
				<path class="st2" d="M326.3,173.3c4.1,0,7.5,3.4,7.5,7.5s-3.4,7.5-7.5,7.5s-7.5-3.4-7.5-7.5S322.1,173.3,326.3,173.3
					 M326.3,168.7c-6.7,0-12,5.4-12,12c0,6.7,5.4,12,12,12c6.7,0,12-5.4,12-12C338.3,174.1,332.9,168.7,326.3,168.7L326.3,168.7z"/>
			</g>
			<g>
				<rect x="351.9" y="172.5" class="st2" width="18.1" height="4.5"/>
			</g>
			<g>
				<rect x="351.9" y="177.8" class="st2" width="18.1" height="4.5"/>
			</g>
			<g>
				<rect x="351.9" y="183" class="st2" width="18.1" height="4.5"/>
			</g>
			<g>
				<rect x="351.9" y="188.3" class="st2" width="18.1" height="4.5"/>
			</g>
			<g>
				<polygon class="st2" points="296.4,192.1 291.7,182.7 281.2,182.7 281.2,178.4 294.4,178.4 300.3,190.1 				"/>
			</g>
			<g>
				
					<rect x="325.2" y="175.2" transform="matrix(0.8223 -0.569 0.569 0.8223 -42.0978 219.9766)" class="st2" width="11.9" height="4.4"/>
			</g>
			<g>
				
					<rect x="325.8" y="180.3" transform="matrix(0.9754 -0.2203 0.2203 0.9754 -32.9677 76.8163)" class="st2" width="4.4" height="12"/>
			</g>
			<g>
				
					<rect x="316.6" y="180.5" transform="matrix(0.9284 -0.3715 0.3715 0.9284 -44.8345 132.5424)" class="st2" width="10" height="4.4"/>
			</g>
		</g>
	</g>
	<g>
		<path class="st2" d="M211.1,194c-5,0-10-2.1-14.5-6.1c-7.9-6.9-12.5-18.3-11.9-29.1l0.1-2.1l2.1,0c10.7,0.1,20.2,5.8,25.9,15.6
			c4.4,7.4,5.6,15.5,3,20.2l-0.5,0.9l-1,0.2C213.3,193.9,212.2,194,211.1,194z M189,161.3c0.1,8.8,4.1,17.8,10.5,23.4
			c4.1,3.6,8.6,5.3,12.9,4.9c1-3.1,0.2-9-3.3-15C206.9,170.8,200.6,162.4,189,161.3z"/>
	</g>
	<g>
		<path class="st2" d="M218.9,176.6c-0.5,0-0.9-0.1-1.3-0.3l-0.3-0.2l-0.3-0.3c-0.9-1-0.8-2.3-0.7-4.1c0-0.2,0-0.3,0-0.4
			c0-1.2,0.1-2.4,0.2-3.6c0.2-2.6,0.6-4.9,1.3-7.1c0.8-2.8,2-5.3,3.5-7.4c2.4-3.4,5.9-6.3,10.3-8.6c4.3-2.2,8.8-3.6,14.3-5l1-0.3
			l0.8,0.7c0.6,0.4,1.2,0.9,1.2,6.7c0,2.4-0.2,4.6-0.6,6.7c-0.7,3.9-2.2,7.3-4.3,10.1c-2.1,2.8-5.1,5.2-9.4,7.6
			c-2.6,1.4-5.1,2.6-7.5,3.5c-1.4,0.5-2.7,0.9-4,1.3c-0.7,0.2-1.3,0.3-2,0.5c-0.1,0-0.1,0-0.3,0.1
			C220.2,176.5,219.6,176.6,218.9,176.6z M244.4,144.4c-4.1,1.1-7.6,2.3-10.9,4c-3.8,2-6.7,4.4-8.7,7.2c-1.2,1.8-2.2,3.8-2.9,6.1
			c-0.6,1.9-0.9,3.9-1.1,6.2c-0.1,1-0.1,2.1-0.2,3.3c0,0.1,0,0.3,0,0.6c0.5-0.1,0.9-0.2,1.4-0.3c1.2-0.3,2.4-0.7,3.6-1.1
			c2.2-0.8,4.5-1.9,6.9-3.2c3.7-2.1,6.3-4.1,8.1-6.4c1.7-2.2,2.9-5.1,3.5-8.3c0.3-1.8,0.5-3.7,0.5-5.9
			C244.5,146.4,244.5,145.4,244.4,144.4z"/>
	</g>
	<g>
		<path class="st2" d="M230.2,199.1c-0.2,0-0.5,0-0.7,0c-3,0-5.7-0.3-8.2-0.7c-1.4-0.2-2.8-0.5-4.1-0.9c-0.7-0.2-1.3-0.4-1.9-0.6
			c0,0-0.1,0-0.2-0.1c-1.1-0.3-2.3-0.6-2.9-1.6l-0.2-0.3l-0.1-0.4c-0.3-1.3,0.4-2.4,1.4-4c0.1-0.1,0.2-0.3,0.2-0.4
			c0.6-1.1,1.3-2.1,1.9-3c1.5-2.1,3-4,4.6-5.5c2.1-2,4.3-3.6,6.7-4.7c3.8-1.8,8.2-2.6,13.2-2.4c4.8,0.2,9.4,1.3,14.9,2.8l1,0.3
			l0.4,1c0.3,0.7,0.6,1.4-2.3,6.4c-1.2,2.1-2.4,3.9-3.8,5.5c-2.6,3.1-5.5,5.3-8.8,6.7C238.3,198.5,234.7,199.1,230.2,199.1z
			 M216.8,192.9c0.5,0.2,0.9,0.3,1.4,0.4c1.2,0.3,2.4,0.6,3.7,0.8c2.3,0.4,4.8,0.6,7.6,0.6c4.3,0.1,7.5-0.4,10.2-1.6
			c2.6-1.1,5-3,7.1-5.5c1.2-1.4,2.3-3,3.3-4.8c0.1-0.2,0.5-1.1,1-2c-4.1-1.1-7.7-1.8-11.4-1.9c-4.2-0.2-8,0.5-11.2,2
			c-1.9,0.9-3.8,2.2-5.5,3.9c-1.4,1.4-2.8,3-4.1,4.9c-0.6,0.9-1.2,1.8-1.8,2.8C217.1,192.6,217,192.7,216.8,192.9z"/>
	</g>
	<g>
		<path class="st2" d="M214.5,225.2c-4.6-15.7-3.9-34,2.1-52.8l4.2,1.3c-5.7,18-6.5,35.3-2.1,50.2L214.5,225.2z"/>
	</g>
	<g>
		<path class="st2" d="M302.3,257.6c-51.2-37.9-118.6-39.4-171.6-4l-4-6c27-18,58.1-27.3,90.1-26.6c32.3,0.6,63.4,11.3,89.8,30.8
			L302.3,257.6z"/>
	</g>
	<g>
		<path class="st2" d="M179.1,260.6h-13.5c-1.1,0-2-0.9-2-2s0.9-2,2-2h13.5c1.1,0,2,0.9,2,2S180.2,260.6,179.1,260.6z"/>
	</g>
	<g>
		<path class="st2" d="M216.5,260.6H203c-1.1,0-2-0.9-2-2s0.9-2,2-2h13.5c1.1,0,2,0.9,2,2S217.6,260.6,216.5,260.6z"/>
	</g>
	<g>
		<path class="st2" d="M198.4,245.8h-13.5c-1.1,0-2-0.9-2-2s0.9-2,2-2h13.5c1.1,0,2,0.9,2,2S199.5,245.8,198.4,245.8z"/>
	</g>
	<g>
		<path class="st2" d="M236.9,245.8h-13.5c-1.1,0-2-0.9-2-2s0.9-2,2-2h13.5c1.1,0,2,0.9,2,2S238,245.8,236.9,245.8z"/>
	</g>
	<g>
		<path class="st2" d="M255,260.6h-13.5c-1.1,0-2-0.9-2-2s0.9-2,2-2H255c1.1,0,2,0.9,2,2S256.1,260.6,255,260.6z"/>
	</g>
	<g>
		<path class="st2" d="M196.3,275.9h-13.5c-1.1,0-2-0.9-2-2s0.9-2,2-2h13.5c1.1,0,2,0.9,2,2S197.4,275.9,196.3,275.9z"/>
	</g>
	<g>
		<path class="st2" d="M233.7,275.9h-13.5c-1.1,0-2-0.9-2-2s0.9-2,2-2h13.5c1.1,0,2,0.9,2,2S234.8,275.9,233.7,275.9z"/>
	</g>
	<g>
		<path class="st2" d="M272.2,275.9h-13.5c-1.1,0-2-0.9-2-2s0.9-2,2-2h13.5c1.1,0,2,0.9,2,2S273.3,275.9,272.2,275.9z"/>
	</g>
</g>
</svg>
