<?xml version="1.0" encoding="utf-8"?>
<!-- Generator: Adobe Illustrator 22.0.0, SVG Export Plug-In . SVG Version: 6.00 Build 0)  -->
<svg version="1.1" id="Layer_1" xmlns="http://www.w3.org/2000/svg" xmlns:xlink="http://www.w3.org/1999/xlink" x="0px" y="0px"
	 viewBox="0 0 469 360.2" style="enable-background:new 0 0 469 360.2;" xml:space="preserve">
<style type="text/css">
	.st0{fill:none;stroke:#FFFFFF;stroke-width:6.5388;stroke-miterlimit:10;}
	.st1{fill:#FFFFFF;}
	.st2{fill:#105F28;}
	.st3{stroke:#FFFFFF;stroke-width:4.541;stroke-miterlimit:10;}
	.st4{fill:none;stroke:#FFFFFF;stroke-width:4.3592;stroke-miterlimit:10;}
	.st5{fill:none;stroke:#FFFFFF;stroke-width:3.2694;stroke-linecap:round;stroke-miterlimit:10;}
	.st6{fill:none;stroke:#FFFFFF;stroke-width:7.2002;stroke-miterlimit:10;}
	.st7{fill:none;stroke:#FFFFFF;stroke-width:3.9641;stroke-linecap:round;stroke-miterlimit:10;}
	.st8{fill:none;stroke:#105F28;stroke-width:3.8932;stroke-miterlimit:10;}
	.st9{fill:none;stroke:#105F28;stroke-width:0.625;stroke-miterlimit:10;}
</style>
<path class="st8" d="M179.5,160.3V50.9c0-10.2,8.2-18.4,18.4-18.4h0c10.2,0,18.4,8.2,18.4,18.4v6.7"/>
<line class="st8" x1="216.3" y1="76.3" x2="216.3" y2="116.2"/>
<path class="st8" d="M247.6,79.1l-43.8-3.9c-4.3-0.4-7.6-4-7.6-8.4v0c0-4.4,3.4-8.1,7.8-8.4l44.9-3.1"/>
<path class="st8" d="M135,202.8v10.5c0,25.3,38.2,45.8,85.2,45.8s85.2-20.5,85.2-45.8v-10.5"/>
<path class="st8" d="M281.4,168.7c14.9,8.2,24.1,19.5,24.1,31.9c0,25.3-38.2,45.8-85.2,45.8S135,225.9,135,200.7
	c0-23.7,33.5-43.1,76.4-45.5"/>
<path class="st8" d="M212.9,166.7c-40.6,2.2-72.3,22.3-72.3,49.9"/>
<path class="st8" d="M300,216.6c0-18.1-13.6-32.9-34.4-41.6"/>
<line class="st8" x1="155.8" y1="243.3" x2="171" y2="311.1"/>
<line class="st8" x1="283.2" y1="244.2" x2="268.2" y2="311.5"/>
<line class="st8" x1="261.2" y1="175.9" x2="242.6" y2="225.7"/>
<line class="st8" x1="193" y1="219.8" x2="215.6" y2="159.5"/>
<path class="st8" d="M208.6,124.5l-4.2,11.2c-4.3,11.4,9.8,27.3,31.5,35.3c21.6,8.1,42.7,5.3,46.9-6.1l4.2-11.2"/>
<path class="st8" d="M276.7,130.6c8.7,7.5,12.9,16.2,10.3,23.2c-4.3,11.4-25.3,14.2-46.9,6.1s-35.7-23.9-31.5-35.3
	c2.8-7.5,12.8-11.3,25.4-10.7"/>
<line class="st8" x1="295.9" y1="79.2" x2="271.2" y2="145.4"/>
<line class="st8" x1="228.2" y1="129.4" x2="253.3" y2="62.3"/>
<path class="st8" d="M271.4,144.7c-2.6,6.9-14.3,9-26.1,4.6c-11.8-4.4-19.4-13.6-16.8-20.6"/>
<path class="st8" d="M296,79.2c-2.4,6.3-14,7.8-26,3.4c-12-4.5-19.5-14-17.1-20.3"/>
<path class="st8" d="M268.5,308.6c0,10.9-21.8,19.6-48.8,19.6s-48.8-8.8-48.8-19.6"/>
<path class="st8" d="M308.9,66.3c0.4,1.8,0.3,3.6-0.4,5.3c-3.2,8.5-18.8,10.6-35,4.5c-16.1-6-26.6-17.8-23.4-26.3
	c0.6-1.6,1.6-2.9,2.9-4"/>
<ellipse transform="matrix(0.3495 -0.9369 0.9369 0.3495 135.8453 298.1886)" class="st8" cx="282.7" cy="51.3" rx="16.5" ry="31.2"/>
<g>
	<g>
		<path class="st9" d="M222.1,227.6c-0.3-0.3-0.7-0.5-1.1-0.6c-1.4-0.2-2.6,0.1-3.7,0.9c-0.3,0.2-0.5,0.5-0.7,0.9
			c-0.2,0.5-0.1,1,0.3,1.4c0.3,0.3,0.7,0.4,1.1,0.5c1.2,0.2,2.4,0,3.4-0.7c0.1-0.1,0.3-0.2,0.4-0.3c0.3-0.2,0.5-0.5,0.7-0.9
			C222.6,228.5,222.5,228,222.1,227.6z"/>
		<path class="st2" d="M217.6,228.7c1.1-0.7,2.3-1,3.5-0.8c0.2,0,0.3,0.1,0.5,0.1c0.1,0,0.1,0.1,0.1,0.2c0,0.1-0.1,0.1-0.2,0.1
			c-0.3-0.1-0.6-0.2-1-0.2c-1,0-1.9,0.2-2.7,0.7c-0.2,0.1-0.4,0.3-0.6,0.5c-0.1,0.1-0.1,0.1-0.2,0c-0.1-0.1-0.1-0.1,0-0.2
			C217.3,229,217.5,228.8,217.6,228.7z"/>
	</g>
	<g>
		<path class="st9" d="M231.6,229.3c-0.4-0.4-0.9-0.6-1.5-0.7c-1.8-0.3-3.5,0.1-4.9,1.2c-0.4,0.3-0.7,0.7-0.9,1.2
			c-0.3,0.7-0.1,1.3,0.4,1.8c0.4,0.4,0.9,0.6,1.4,0.7c1.6,0.3,3.1-0.1,4.5-0.9c0.2-0.1,0.3-0.2,0.5-0.4c0.4-0.3,0.7-0.7,0.9-1.1
			C232.2,230.4,232.1,229.8,231.6,229.3z"/>
		<path class="st2" d="M225.6,230.7c1.5-0.9,3-1.3,4.6-1.1c0.2,0,0.4,0.1,0.6,0.2c0.1,0,0.2,0.1,0.1,0.2c0,0.1-0.1,0.1-0.3,0.1
			c-0.4-0.2-0.9-0.2-1.3-0.2c-1.3,0-2.4,0.3-3.5,1c-0.3,0.2-0.5,0.4-0.7,0.6c-0.1,0.1-0.2,0.1-0.2,0c-0.1-0.1-0.1-0.2,0-0.2
			C225.2,231,225.5,230.8,225.6,230.7z"/>
	</g>
	<g>
		<path class="st9" d="M213.3,227.1c-0.3-0.3-0.7-0.5-1.1-0.6c-1.4-0.2-2.6,0.1-3.7,0.9c-0.3,0.2-0.5,0.5-0.7,0.9
			c-0.2,0.5-0.1,1,0.3,1.4c0.3,0.3,0.7,0.4,1.1,0.5c1.2,0.2,2.4,0,3.4-0.7c0.1-0.1,0.3-0.2,0.4-0.3c0.3-0.2,0.5-0.5,0.7-0.9
			C213.7,228,213.7,227.5,213.3,227.1z"/>
		<path class="st2" d="M208.8,228.2c1.1-0.7,2.3-1,3.5-0.8c0.2,0,0.3,0.1,0.5,0.1c0.1,0,0.1,0.1,0.1,0.2c0,0.1-0.1,0.1-0.2,0.1
			c-0.3-0.1-0.6-0.2-1-0.2c-1,0-1.9,0.2-2.7,0.7c-0.2,0.1-0.4,0.3-0.6,0.5c-0.1,0.1-0.1,0.1-0.2,0c-0.1-0.1-0.1-0.1,0-0.2
			C208.5,228.5,208.6,228.3,208.8,228.2z"/>
	</g>
	<g>
		<path class="st9" d="M217,229.7c-0.4-0.4-0.9-0.6-1.5-0.7c-1.8-0.3-3.5,0.1-4.9,1.2c-0.4,0.3-0.7,0.7-0.9,1.2
			c-0.3,0.7-0.1,1.3,0.4,1.8c0.4,0.4,0.9,0.6,1.4,0.7c1.6,0.3,3.1-0.1,4.5-0.9c0.2-0.1,0.3-0.2,0.5-0.4c0.4-0.3,0.7-0.7,0.9-1.1
			C217.5,230.8,217.5,230.2,217,229.7z"/>
		<path class="st2" d="M211,231.1c1.5-0.9,3-1.3,4.6-1.1c0.2,0,0.4,0.1,0.6,0.2c0.1,0,0.2,0.1,0.1,0.2c0,0.1-0.1,0.1-0.3,0.1
			c-0.4-0.2-0.9-0.2-1.3-0.2c-1.3,0-2.4,0.3-3.5,1c-0.3,0.2-0.5,0.4-0.7,0.6c-0.1,0.1-0.2,0.1-0.2,0c-0.1-0.1-0.1-0.2,0-0.2
			C210.6,231.5,210.8,231.3,211,231.1z"/>
	</g>
	<g>
		<path class="st9" d="M258.6,213c-0.2-0.2-0.5-0.3-0.8-0.4c-1-0.2-1.8,0-2.6,0.6c-0.2,0.2-0.4,0.4-0.5,0.6c-0.1,0.4-0.1,0.7,0.2,1
			c0.2,0.2,0.5,0.3,0.8,0.4c0.9,0.2,1.7,0,2.4-0.5c0.1-0.1,0.2-0.1,0.3-0.2c0.2-0.2,0.4-0.4,0.5-0.6
			C258.9,213.6,258.9,213.3,258.6,213z"/>
		<path class="st2" d="M255.5,213.8c0.8-0.5,1.6-0.7,2.5-0.6c0.1,0,0.2,0.1,0.3,0.1c0.1,0,0.1,0.1,0.1,0.1c0,0.1-0.1,0.1-0.1,0
			c-0.2-0.1-0.5-0.1-0.7-0.1c-0.7,0-1.3,0.2-1.9,0.5c-0.1,0.1-0.3,0.2-0.4,0.3c0,0-0.1,0.1-0.1,0c0,0,0-0.1,0-0.1
			C255.3,213.9,255.4,213.8,255.5,213.8z"/>
	</g>
	<g>
		<path class="st9" d="M252.5,212.7c-0.2-0.2-0.5-0.3-0.8-0.4c-1-0.2-1.8,0-2.6,0.6c-0.2,0.2-0.4,0.4-0.5,0.6
			c-0.1,0.4-0.1,0.7,0.2,1c0.2,0.2,0.5,0.3,0.8,0.4c0.9,0.2,1.7,0,2.4-0.5c0.1-0.1,0.2-0.1,0.3-0.2c0.2-0.2,0.4-0.4,0.5-0.6
			C252.8,213.2,252.7,212.9,252.5,212.7z"/>
		<path class="st2" d="M249.3,213.4c0.8-0.5,1.6-0.7,2.5-0.6c0.1,0,0.2,0.1,0.3,0.1c0.1,0,0.1,0.1,0.1,0.1c0,0.1-0.1,0.1-0.1,0
			c-0.2-0.1-0.5-0.1-0.7-0.1c-0.7,0-1.3,0.2-1.9,0.5c-0.1,0.1-0.3,0.2-0.4,0.3c0,0-0.1,0.1-0.1,0c0,0,0-0.1,0-0.1
			C249.1,213.6,249.2,213.5,249.3,213.4z"/>
	</g>
	<g>
		<path class="st9" d="M255,214.5c-0.3-0.3-0.7-0.5-1.1-0.5c-1.3-0.2-2.4,0.1-3.4,0.8c-0.3,0.2-0.5,0.5-0.6,0.8
			c-0.2,0.5-0.1,0.9,0.3,1.3c0.3,0.3,0.6,0.4,1,0.5c1.1,0.2,2.2,0,3.1-0.6c0.1-0.1,0.2-0.2,0.3-0.3c0.3-0.2,0.5-0.5,0.6-0.8
			C255.4,215.3,255.4,214.8,255,214.5z"/>
		<path class="st2" d="M250.9,215.5c1-0.6,2.1-0.9,3.3-0.7c0.2,0,0.3,0.1,0.5,0.1c0.1,0,0.1,0.1,0.1,0.2c0,0.1-0.1,0.1-0.2,0.1
			c-0.3-0.1-0.6-0.1-0.9-0.1c-0.9,0-1.7,0.2-2.5,0.7c-0.2,0.1-0.3,0.3-0.5,0.4c-0.1,0.1-0.1,0.1-0.2,0c-0.1-0.1-0.1-0.1,0-0.2
			C250.6,215.7,250.7,215.6,250.9,215.5z"/>
	</g>
	<g>
		<path class="st9" d="M208,224.1c-0.3-0.3-0.7-0.5-1.1-0.6c-1.4-0.2-2.6,0.1-3.7,0.9c-0.3,0.2-0.5,0.5-0.7,0.9
			c-0.2,0.5-0.1,1,0.3,1.4c0.3,0.3,0.7,0.4,1.1,0.5c1.2,0.2,2.4,0,3.4-0.7c0.1-0.1,0.3-0.2,0.4-0.3c0.3-0.2,0.5-0.5,0.7-0.9
			C208.4,224.9,208.4,224.4,208,224.1z"/>
		<path class="st2" d="M203.5,225.1c1.1-0.7,2.3-1,3.5-0.8c0.2,0,0.3,0.1,0.5,0.1c0.1,0,0.1,0.1,0.1,0.2c0,0.1-0.1,0.1-0.2,0.1
			c-0.3-0.1-0.6-0.2-1-0.2c-1,0-1.9,0.2-2.7,0.7c-0.2,0.1-0.4,0.3-0.6,0.5c-0.1,0.1-0.1,0.1-0.2,0c-0.1-0.1-0.1-0.1,0-0.2
			C203.2,225.4,203.4,225.2,203.5,225.1z"/>
	</g>
	<g>
		<path class="st9" d="M191.2,222.7c-0.5-0.4-1-0.5-1.6-0.5c-1.8,0-3.4,0.6-4.7,1.9c-0.4,0.4-0.6,0.8-0.7,1.3
			c-0.2,0.7,0.1,1.3,0.7,1.7c0.5,0.3,1,0.4,1.5,0.4c1.6,0,3.1-0.5,4.3-1.6c0.2-0.2,0.3-0.3,0.4-0.4c0.3-0.4,0.6-0.8,0.7-1.2
			C191.9,223.7,191.7,223.1,191.2,222.7z"/>
		<path class="st2" d="M185.5,225c1.3-1.1,2.8-1.7,4.4-1.8c0.2,0,0.4,0,0.7,0.1c0.1,0,0.2,0.1,0.2,0.2c0,0.1-0.1,0.1-0.2,0.1
			c-0.4-0.1-0.9-0.1-1.3,0c-1.2,0.2-2.4,0.7-3.3,1.5c-0.2,0.2-0.4,0.5-0.6,0.7c-0.1,0.1-0.1,0.1-0.2,0.1c-0.1-0.1-0.1-0.2,0-0.2
			C185.1,225.4,185.3,225.1,185.5,225z"/>
	</g>
	<g>
		<path class="st9" d="M206.4,227.6c-0.4-0.4-0.9-0.6-1.5-0.7c-1.8-0.3-3.5,0.1-4.9,1.2c-0.4,0.3-0.7,0.7-0.9,1.2
			c-0.3,0.7-0.1,1.3,0.4,1.8c0.4,0.4,0.9,0.6,1.4,0.7c1.6,0.3,3.1-0.1,4.5-0.9c0.2-0.1,0.3-0.2,0.5-0.4c0.4-0.3,0.7-0.7,0.9-1.1
			C207,228.7,206.9,228.1,206.4,227.6z"/>
		<path class="st2" d="M200.5,229c1.5-0.9,3-1.3,4.6-1.1c0.2,0,0.4,0.1,0.6,0.2c0.1,0,0.2,0.1,0.1,0.2c0,0.1-0.1,0.1-0.3,0.1
			c-0.4-0.2-0.9-0.2-1.3-0.2c-1.3,0-2.4,0.3-3.5,1c-0.3,0.2-0.5,0.4-0.7,0.6c-0.1,0.1-0.2,0.1-0.2,0c-0.1-0.1-0.1-0.2,0-0.2
			C200.1,229.3,200.3,229.1,200.5,229z"/>
	</g>
	<g>
		<path class="st9" d="M199.1,225.1c-0.4-0.4-0.9-0.6-1.5-0.7c-1.8-0.3-3.5,0.1-4.9,1.2c-0.4,0.3-0.7,0.7-0.9,1.2
			c-0.3,0.7-0.1,1.3,0.4,1.8c0.4,0.4,0.9,0.6,1.4,0.7c1.6,0.3,3.1-0.1,4.5-0.9c0.2-0.1,0.3-0.2,0.5-0.4c0.4-0.3,0.7-0.7,0.9-1.1
			C199.7,226.2,199.6,225.6,199.1,225.1z"/>
		<path class="st2" d="M193.1,226.5c1.5-0.9,3-1.3,4.6-1.1c0.2,0,0.4,0.1,0.6,0.2c0.1,0,0.2,0.1,0.1,0.2c0,0.1-0.1,0.1-0.3,0.1
			c-0.4-0.2-0.9-0.2-1.3-0.2c-1.3,0-2.4,0.3-3.5,1c-0.3,0.2-0.5,0.4-0.7,0.6c-0.1,0.1-0.2,0.1-0.2,0c-0.1-0.1-0.1-0.2,0-0.2
			C192.7,226.8,193,226.6,193.1,226.5z"/>
	</g>
	<g>
		<path class="st9" d="M203.1,220.9c-0.3-0.3-0.7-0.5-1.1-0.6c-1.4-0.2-2.6,0.1-3.7,0.9c-0.3,0.2-0.5,0.5-0.7,0.9
			c-0.2,0.5-0.1,1,0.3,1.4c0.3,0.3,0.7,0.4,1.1,0.5c1.2,0.2,2.4,0,3.4-0.7c0.1-0.1,0.3-0.2,0.4-0.3c0.3-0.2,0.5-0.5,0.7-0.9
			C203.6,221.7,203.5,221.3,203.1,220.9z"/>
		<path class="st2" d="M198.6,222c1.1-0.7,2.3-1,3.5-0.8c0.2,0,0.3,0.1,0.5,0.1c0.1,0,0.1,0.1,0.1,0.2c0,0.1-0.1,0.1-0.2,0.1
			c-0.3-0.1-0.6-0.2-1-0.2c-1,0-1.9,0.2-2.7,0.7c-0.2,0.1-0.4,0.3-0.6,0.5c-0.1,0.1-0.1,0.1-0.2,0c-0.1-0.1-0.1-0.1,0-0.2
			C198.3,222.2,198.5,222.1,198.6,222z"/>
	</g>
	<g>
		<path class="st9" d="M187.9,218.6c-0.4-0.4-0.9-0.6-1.5-0.7c-1.8-0.3-3.5,0.1-4.9,1.2c-0.4,0.3-0.7,0.7-0.9,1.2
			c-0.3,0.7-0.1,1.3,0.4,1.8c0.4,0.4,0.9,0.6,1.4,0.7c1.6,0.3,3.1-0.1,4.5-0.9c0.2-0.1,0.3-0.2,0.5-0.4c0.4-0.3,0.7-0.7,0.9-1.1
			C188.5,219.7,188.4,219.1,187.9,218.6z"/>
		<path class="st2" d="M181.9,220c1.5-0.9,3-1.3,4.6-1.1c0.2,0,0.4,0.1,0.6,0.2c0.1,0,0.2,0.1,0.1,0.2c0,0.1-0.1,0.1-0.3,0.1
			c-0.4-0.2-0.9-0.2-1.3-0.2c-1.3,0-2.4,0.3-3.5,1c-0.3,0.2-0.5,0.4-0.7,0.6c-0.1,0.1-0.2,0.1-0.2,0c-0.1-0.1-0.1-0.2,0-0.2
			C181.5,220.4,181.8,220.2,181.9,220z"/>
	</g>
	<g>
		<path class="st9" d="M183.9,214.4c-0.3-0.3-0.7-0.5-1.1-0.6c-1.4-0.2-2.6,0.1-3.7,0.9c-0.3,0.2-0.5,0.5-0.7,0.9
			c-0.2,0.5-0.1,1,0.3,1.4c0.3,0.3,0.7,0.4,1.1,0.5c1.2,0.2,2.4,0,3.4-0.7c0.1-0.1,0.3-0.2,0.4-0.3c0.3-0.2,0.5-0.5,0.7-0.9
			C184.3,215.2,184.3,214.8,183.9,214.4z"/>
		<path class="st2" d="M179.4,215.4c1.1-0.7,2.3-1,3.5-0.8c0.2,0,0.3,0.1,0.5,0.1c0.1,0,0.1,0.1,0.1,0.2c0,0.1-0.1,0.1-0.2,0.1
			c-0.3-0.1-0.6-0.2-1-0.2c-1,0-1.9,0.2-2.7,0.7c-0.2,0.1-0.4,0.3-0.6,0.5c-0.1,0.1-0.1,0.1-0.2,0c-0.1-0.1-0.1-0.1,0-0.2
			C179.1,215.7,179.2,215.5,179.4,215.4z"/>
	</g>
	<g>
		<path class="st9" d="M251,220.2c-0.3-0.3-0.7-0.5-1.1-0.6c-1.4-0.2-2.6,0.1-3.7,0.9c-0.3,0.2-0.5,0.5-0.7,0.9
			c-0.2,0.5-0.1,1,0.3,1.4c0.3,0.3,0.7,0.4,1.1,0.5c1.2,0.2,2.4,0,3.4-0.7c0.1-0.1,0.3-0.2,0.4-0.3c0.3-0.2,0.5-0.5,0.7-0.9
			C251.4,221.1,251.3,220.6,251,220.2z"/>
		<path class="st2" d="M246.4,221.3c1.1-0.7,2.3-1,3.5-0.8c0.2,0,0.3,0.1,0.5,0.1c0.1,0,0.1,0.1,0.1,0.2c0,0.1-0.1,0.1-0.2,0.1
			c-0.3-0.1-0.6-0.2-1-0.2c-1,0-1.9,0.2-2.7,0.7c-0.2,0.1-0.4,0.3-0.6,0.5c-0.1,0.1-0.1,0.1-0.2,0c-0.1-0.1-0.1-0.1,0-0.2
			C246.1,221.6,246.3,221.4,246.4,221.3z"/>
	</g>
	<g>
		<path class="st9" d="M196.1,218.6c-0.3-0.3-0.7-0.5-1.1-0.6c-1.4-0.2-2.6,0.1-3.7,0.9c-0.3,0.2-0.5,0.5-0.7,0.9
			c-0.2,0.5-0.1,1,0.3,1.4c0.3,0.3,0.7,0.4,1.1,0.5c1.2,0.2,2.4,0,3.4-0.7c0.1-0.1,0.3-0.2,0.4-0.3c0.3-0.2,0.5-0.5,0.7-0.9
			C196.6,219.5,196.5,219,196.1,218.6z"/>
		<path class="st1" d="M191.6,219.7c1.1-0.7,2.3-1,3.5-0.8c0.2,0,0.3,0.1,0.5,0.1c0.1,0,0.1,0.1,0.1,0.2c0,0.1-0.1,0.1-0.2,0.1
			c-0.3-0.1-0.6-0.2-1-0.2c-1,0-1.9,0.2-2.7,0.7c-0.2,0.1-0.4,0.3-0.6,0.5c-0.1,0.1-0.1,0.1-0.2,0c-0.1-0.1-0.1-0.1,0-0.2
			C191.3,220,191.5,219.8,191.6,219.7z"/>
	</g>
	<g>
		<path class="st9" d="M193.2,213.5c-0.4-0.4-0.9-0.6-1.5-0.7c-1.8-0.3-3.5,0.1-4.9,1.2c-0.4,0.3-0.7,0.7-0.9,1.2
			c-0.3,0.7-0.1,1.3,0.4,1.8c0.4,0.4,0.9,0.6,1.4,0.7c1.6,0.3,3.1-0.1,4.5-0.9c0.2-0.1,0.3-0.2,0.5-0.4c0.4-0.3,0.7-0.7,0.9-1.1
			C193.8,214.6,193.7,214.1,193.2,213.5z"/>
		<path class="st2" d="M187.2,214.9c1.5-0.9,3-1.3,4.6-1.1c0.2,0,0.4,0.1,0.6,0.2c0.1,0,0.2,0.1,0.1,0.2c0,0.1-0.1,0.1-0.3,0.1
			c-0.4-0.2-0.9-0.2-1.3-0.2c-1.3,0-2.4,0.3-3.5,1c-0.3,0.2-0.5,0.4-0.7,0.6c-0.1,0.1-0.2,0.1-0.2,0c-0.1-0.1-0.1-0.2,0-0.2
			C186.8,215.3,187.1,215.1,187.2,214.9z"/>
	</g>
	<g>
		<path class="st9" d="M245.8,224.6c-0.4-0.4-0.9-0.6-1.5-0.7c-1.8-0.3-3.5,0.1-4.9,1.2c-0.4,0.3-0.7,0.7-0.9,1.2
			c-0.3,0.7-0.1,1.3,0.4,1.8c0.4,0.4,0.9,0.6,1.4,0.7c1.6,0.3,3.1-0.1,4.5-0.9c0.2-0.1,0.3-0.2,0.5-0.4c0.4-0.3,0.7-0.7,0.9-1.1
			C246.4,225.7,246.3,225.1,245.8,224.6z"/>
		<path class="st2" d="M239.8,226c1.5-0.9,3-1.3,4.6-1.1c0.2,0,0.4,0.1,0.6,0.2c0.1,0,0.2,0.1,0.1,0.2c0,0.1-0.1,0.1-0.3,0.1
			c-0.4-0.2-0.9-0.2-1.3-0.2c-1.3,0-2.4,0.3-3.5,1c-0.3,0.2-0.5,0.4-0.7,0.6c-0.1,0.1-0.2,0.1-0.2,0c-0.1-0.1-0.1-0.2,0-0.2
			C239.4,226.4,239.7,226.2,239.8,226z"/>
	</g>
	<g>
		<path class="st9" d="M229.9,226.1c-0.3-0.3-0.7-0.5-1.1-0.6c-1.4-0.2-2.6,0.1-3.7,0.9c-0.3,0.2-0.5,0.5-0.7,0.9
			c-0.2,0.5-0.1,1,0.3,1.4c0.3,0.3,0.7,0.4,1.1,0.5c1.2,0.2,2.4,0,3.4-0.7c0.1-0.1,0.3-0.2,0.4-0.3c0.3-0.2,0.5-0.5,0.7-0.9
			C230.4,227,230.3,226.5,229.9,226.1z"/>
		<path class="st2" d="M225.4,227.2c1.1-0.7,2.3-1,3.5-0.8c0.2,0,0.3,0.1,0.5,0.1c0.1,0,0.1,0.1,0.1,0.2c0,0.1-0.1,0.1-0.2,0.1
			c-0.3-0.1-0.6-0.2-1-0.2c-1,0-1.9,0.2-2.7,0.7c-0.2,0.1-0.4,0.3-0.6,0.5c-0.1,0.1-0.1,0.1-0.2,0c-0.1-0.1-0.1-0.1,0-0.2
			C225.1,227.5,225.3,227.3,225.4,227.2z"/>
	</g>
	<g>
		<path class="st9" d="M258.6,218.2c-0.4-0.4-0.9-0.6-1.5-0.7c-1.8-0.3-3.5,0.1-4.9,1.2c-0.4,0.3-0.7,0.7-0.9,1.2
			c-0.3,0.7-0.1,1.3,0.4,1.8c0.4,0.4,0.9,0.6,1.4,0.7c1.6,0.3,3.1-0.1,4.5-0.9c0.2-0.1,0.3-0.2,0.5-0.4c0.4-0.3,0.7-0.7,0.9-1.1
			C259.2,219.3,259.1,218.7,258.6,218.2z"/>
		<path class="st2" d="M252.6,219.6c1.5-0.9,3-1.3,4.6-1.1c0.2,0,0.4,0.1,0.6,0.2c0.1,0,0.2,0.1,0.1,0.2c0,0.1-0.1,0.1-0.3,0.1
			c-0.4-0.2-0.9-0.2-1.3-0.2c-1.3,0-2.4,0.3-3.5,1c-0.3,0.2-0.5,0.4-0.7,0.6c-0.1,0.1-0.2,0.1-0.2,0c-0.1-0.1-0.1-0.2,0-0.2
			C252.3,220,252.5,219.8,252.6,219.6z"/>
	</g>
	<g>
		<path class="st9" d="M237.9,226.6c-0.3-0.3-0.7-0.5-1.1-0.6c-1.4-0.2-2.6,0.1-3.7,0.9c-0.3,0.2-0.5,0.5-0.7,0.9
			c-0.2,0.5-0.1,1,0.3,1.4c0.3,0.3,0.7,0.4,1.1,0.5c1.2,0.2,2.4,0,3.4-0.7c0.1-0.1,0.3-0.2,0.4-0.3c0.3-0.2,0.5-0.5,0.7-0.9
			C238.4,227.4,238.3,227,237.9,226.6z"/>
		<path class="st2" d="M233.4,227.6c1.1-0.7,2.3-1,3.5-0.8c0.2,0,0.3,0.1,0.5,0.1c0.1,0,0.1,0.1,0.1,0.2c0,0.1-0.1,0.1-0.2,0.1
			c-0.3-0.1-0.6-0.2-1-0.2c-1,0-1.9,0.2-2.7,0.7c-0.2,0.1-0.4,0.3-0.6,0.5c-0.1,0.1-0.1,0.1-0.2,0c-0.1-0.1-0.1-0.1,0-0.2
			C233.1,227.9,233.3,227.8,233.4,227.6z"/>
	</g>
	<g>
		<path class="st9" d="M252.5,223.6c-0.3-0.3-0.7-0.5-1.1-0.6c-1.4-0.2-2.6,0.1-3.7,0.9c-0.3,0.2-0.5,0.5-0.7,0.9
			c-0.2,0.5-0.1,1,0.3,1.4c0.3,0.3,0.7,0.4,1.1,0.5c1.2,0.2,2.4,0,3.4-0.7c0.1-0.1,0.3-0.2,0.4-0.3c0.3-0.2,0.5-0.5,0.7-0.9
			C252.9,224.5,252.8,224,252.5,223.6z"/>
		<path class="st2" d="M247.9,224.7c1.1-0.7,2.3-1,3.5-0.8c0.2,0,0.3,0.1,0.5,0.1c0.1,0,0.1,0.1,0.1,0.2c0,0.1-0.1,0.1-0.2,0.1
			c-0.3-0.1-0.6-0.2-1-0.2c-1,0-1.9,0.2-2.7,0.7c-0.2,0.1-0.4,0.3-0.6,0.5c-0.1,0.1-0.1,0.1-0.2,0c-0.1-0.1-0.1-0.1,0-0.2
			C247.6,225,247.8,224.8,247.9,224.7z"/>
	</g>
	<g>
		<path class="st9" d="M188.1,208.4c-0.4-0.2-0.8-0.2-1.2-0.2c-1.3,0.2-2.3,0.8-3,1.9c-0.2,0.3-0.3,0.6-0.4,1c0,0.5,0.2,0.9,0.7,1.1
			c0.4,0.2,0.7,0.2,1.1,0.1c1.2-0.2,2.1-0.7,2.8-1.6c0.1-0.1,0.2-0.2,0.2-0.4c0.2-0.3,0.3-0.6,0.3-1
			C188.8,209,188.6,208.6,188.1,208.4z"/>
		<path class="st2" d="M184.4,210.7c0.8-0.9,1.7-1.5,2.9-1.8c0.2,0,0.3,0,0.5,0c0.1,0,0.2,0,0.2,0.1c0,0.1-0.1,0.1-0.2,0.1
			c-0.3,0-0.6,0.1-0.9,0.2c-0.9,0.3-1.6,0.8-2.2,1.5c-0.1,0.2-0.2,0.4-0.4,0.6c0,0.1-0.1,0.1-0.2,0.1c-0.1,0-0.1-0.1-0.1-0.2
			C184.2,211,184.3,210.8,184.4,210.7z"/>
	</g>
	<g>
		<path class="st9" d="M193.7,207.7c-0.4-0.2-0.8-0.2-1.2-0.2c-1.3,0.2-2.3,0.8-3,1.9c-0.2,0.3-0.3,0.6-0.4,1c0,0.5,0.2,0.9,0.7,1.1
			c0.4,0.2,0.7,0.2,1.1,0.1c1.2-0.2,2.1-0.7,2.8-1.6c0.1-0.1,0.2-0.2,0.2-0.4c0.2-0.3,0.3-0.6,0.3-1
			C194.4,208.3,194.2,207.9,193.7,207.7z"/>
		<path class="st2" d="M190,210c0.8-0.9,1.7-1.5,2.9-1.8c0.2,0,0.3,0,0.5,0c0.1,0,0.2,0,0.2,0.1c0,0.1-0.1,0.1-0.2,0.1
			c-0.3,0-0.6,0.1-0.9,0.2c-0.9,0.3-1.6,0.8-2.2,1.5c-0.1,0.2-0.2,0.4-0.4,0.6c0,0.1-0.1,0.1-0.2,0.1c-0.1,0-0.1-0.1-0.1-0.2
			C189.8,210.3,189.9,210.1,190,210z"/>
	</g>
	<g>
		<path class="st9" d="M196.5,203.7c-0.3-0.1-0.6-0.2-0.9-0.1c-1,0.1-1.8,0.6-2.3,1.5c-0.2,0.2-0.3,0.5-0.3,0.8
			c0,0.4,0.2,0.7,0.5,0.9c0.3,0.1,0.6,0.1,0.8,0.1c0.9-0.1,1.6-0.6,2.1-1.2c0.1-0.1,0.1-0.2,0.2-0.3c0.1-0.2,0.2-0.5,0.3-0.7
			C197,204.2,196.9,203.9,196.5,203.7z"/>
		<path class="st2" d="M193.7,205.5c0.6-0.7,1.3-1.2,2.2-1.3c0.1,0,0.2,0,0.4,0c0.1,0,0.1,0,0.1,0.1c0,0.1,0,0.1-0.1,0.1
			c-0.2,0-0.5,0-0.7,0.1c-0.6,0.2-1.2,0.6-1.6,1.1c-0.1,0.1-0.2,0.3-0.3,0.4c0,0.1-0.1,0.1-0.1,0.1c-0.1,0-0.1-0.1,0-0.1
			C193.6,205.7,193.7,205.6,193.7,205.5z"/>
	</g>
	<g>
		<path class="st9" d="M192.2,204.8c-0.3-0.1-0.6-0.2-0.9-0.1c-1,0.1-1.8,0.6-2.3,1.5c-0.2,0.2-0.3,0.5-0.3,0.8
			c0,0.4,0.2,0.7,0.5,0.9c0.3,0.1,0.6,0.1,0.8,0.1c0.9-0.1,1.6-0.6,2.1-1.2c0.1-0.1,0.1-0.2,0.2-0.3c0.1-0.2,0.2-0.5,0.3-0.7
			C192.7,205.3,192.5,205,192.2,204.8z"/>
		<path class="st2" d="M189.4,206.6c0.6-0.7,1.3-1.2,2.2-1.3c0.1,0,0.2,0,0.4,0c0.1,0,0.1,0,0.1,0.1c0,0.1,0,0.1-0.1,0.1
			c-0.2,0-0.5,0-0.7,0.1c-0.6,0.2-1.2,0.6-1.6,1.1c-0.1,0.1-0.2,0.3-0.3,0.4c0,0.1-0.1,0.1-0.1,0.1c-0.1,0-0.1-0.1,0-0.1
			C189.2,206.8,189.3,206.7,189.4,206.6z"/>
	</g>
	<g>
		<g>
			<path class="st9" d="M217,230.4c-0.3-0.4-0.7-0.6-1.2-0.8c-1.5-0.5-2.9-0.3-4.2,0.5c-0.4,0.2-0.7,0.5-0.9,0.9
				c-0.3,0.5-0.3,1.1,0.1,1.6c0.3,0.3,0.7,0.6,1.1,0.7c1.3,0.4,2.6,0.3,3.8-0.2c0.2-0.1,0.3-0.2,0.4-0.3c0.3-0.2,0.6-0.5,0.8-0.8
				C217.3,231.4,217.3,230.9,217,230.4z"/>
			<path class="st2" d="M211.9,230.9c1.3-0.6,2.6-0.7,4-0.4c0.2,0,0.4,0.1,0.5,0.2c0.1,0.1,0.1,0.1,0.1,0.2c0,0.1-0.1,0.1-0.2,0
				c-0.3-0.2-0.7-0.3-1.1-0.3c-1.1-0.1-2.1,0-3,0.4c-0.2,0.1-0.5,0.3-0.7,0.4c-0.1,0.1-0.1,0.1-0.2,0c-0.1-0.1-0.1-0.2,0-0.2
				C211.5,231.2,211.7,231,211.9,230.9z"/>
		</g>
		<g>
			<path class="st9" d="M227.1,233.6c-0.4-0.5-0.9-0.8-1.5-1c-1.9-0.6-3.8-0.4-5.6,0.6c-0.5,0.3-0.9,0.7-1.2,1.1
				c-0.4,0.7-0.3,1.4,0.2,2.1c0.4,0.5,0.9,0.7,1.5,0.9c1.7,0.6,3.4,0.4,5-0.3c0.2-0.1,0.4-0.2,0.6-0.3c0.5-0.3,0.8-0.6,1.1-1.1
				C227.6,234.9,227.6,234.3,227.1,233.6z"/>
			<path class="st2" d="M220.4,234.3c1.8-0.7,3.5-1,5.2-0.5c0.2,0.1,0.5,0.2,0.7,0.3c0.1,0.1,0.2,0.2,0.1,0.3
				c-0.1,0.1-0.2,0.1-0.3,0c-0.4-0.2-0.9-0.4-1.4-0.4c-1.4-0.2-2.7,0-4,0.6c-0.3,0.1-0.6,0.4-0.9,0.6c-0.1,0.1-0.2,0.1-0.3,0
				c-0.1-0.1-0.1-0.2,0-0.3C219.9,234.6,220.2,234.4,220.4,234.3z"/>
		</g>
		<g>
			<path class="st9" d="M207.4,228.6c-0.3-0.4-0.7-0.6-1.2-0.8c-1.5-0.5-2.9-0.3-4.2,0.5c-0.4,0.2-0.7,0.5-0.9,0.9
				c-0.3,0.5-0.3,1.1,0.1,1.6c0.3,0.3,0.7,0.6,1.1,0.7c1.3,0.4,2.6,0.3,3.8-0.2c0.2-0.1,0.3-0.2,0.4-0.3c0.3-0.2,0.6-0.5,0.8-0.8
				C207.8,229.6,207.7,229.1,207.4,228.6z"/>
			<path class="st2" d="M202.3,229.1c1.3-0.6,2.6-0.7,4-0.4c0.2,0,0.4,0.1,0.5,0.2c0.1,0.1,0.1,0.1,0.1,0.2c0,0.1-0.1,0.1-0.2,0
				c-0.3-0.2-0.7-0.3-1.1-0.3c-1.1-0.1-2.1,0-3,0.4c-0.2,0.1-0.5,0.3-0.7,0.4c-0.1,0.1-0.1,0.1-0.2,0c-0.1-0.1-0.1-0.2,0-0.2
				C201.9,229.3,202.1,229.2,202.3,229.1z"/>
		</g>
		<g>
			<path class="st9" d="M211,232c-0.4-0.5-0.9-0.8-1.5-1c-1.9-0.6-3.8-0.4-5.6,0.6c-0.5,0.3-0.9,0.7-1.2,1.1
				c-0.4,0.7-0.3,1.4,0.2,2.1c0.4,0.5,0.9,0.7,1.5,0.9c1.7,0.6,3.4,0.4,5-0.3c0.2-0.1,0.4-0.2,0.6-0.3c0.5-0.3,0.8-0.6,1.1-1.1
				C211.5,233.3,211.5,232.6,211,232z"/>
			<path class="st2" d="M204.3,232.6c1.8-0.7,3.5-1,5.2-0.5c0.2,0.1,0.5,0.2,0.7,0.3c0.1,0.1,0.2,0.2,0.1,0.3
				c-0.1,0.1-0.2,0.1-0.3,0c-0.4-0.2-0.9-0.4-1.4-0.4c-1.4-0.2-2.7,0-4,0.6c-0.3,0.1-0.6,0.4-0.9,0.6c-0.1,0.1-0.2,0.1-0.3,0
				c-0.1-0.1-0.1-0.2,0-0.3C203.8,233,204.1,232.8,204.3,232.6z"/>
		</g>
		<g>
			<path class="st9" d="M259.1,219.7c-0.2-0.3-0.5-0.5-0.8-0.6c-1-0.3-2-0.2-3,0.3c-0.3,0.1-0.5,0.3-0.6,0.6
				c-0.2,0.4-0.2,0.8,0.1,1.1c0.2,0.2,0.5,0.4,0.8,0.5c0.9,0.3,1.8,0.2,2.7-0.2c0.1-0.1,0.2-0.1,0.3-0.2c0.2-0.2,0.5-0.3,0.6-0.6
				C259.4,220.4,259.4,220.1,259.1,219.7z"/>
			<path class="st2" d="M255.5,220.1c0.9-0.4,1.8-0.5,2.8-0.3c0.1,0,0.2,0.1,0.4,0.1c0.1,0,0.1,0.1,0.1,0.1c0,0.1-0.1,0.1-0.2,0
				c-0.2-0.1-0.5-0.2-0.7-0.2c-0.7-0.1-1.4,0-2.1,0.3c-0.2,0.1-0.3,0.2-0.5,0.3c-0.1,0-0.1,0.1-0.1,0c0,0,0-0.1,0-0.1
				C255.3,220.3,255.4,220.2,255.5,220.1z"/>
		</g>
		<g>
			<path class="st9" d="M252.4,218.4c-0.2-0.3-0.5-0.5-0.8-0.6c-1-0.3-2-0.2-3,0.3c-0.3,0.1-0.5,0.3-0.6,0.6
				c-0.2,0.4-0.2,0.8,0.1,1.1c0.2,0.2,0.5,0.4,0.8,0.5c0.9,0.3,1.8,0.2,2.7-0.2c0.1-0.1,0.2-0.1,0.3-0.2c0.2-0.2,0.5-0.3,0.6-0.6
				C252.6,219.1,252.6,218.8,252.4,218.4z"/>
			<path class="st2" d="M248.8,218.8c0.9-0.4,1.8-0.5,2.8-0.3c0.1,0,0.2,0.1,0.4,0.1c0.1,0,0.1,0.1,0.1,0.1c0,0.1-0.1,0.1-0.2,0
				c-0.2-0.1-0.5-0.2-0.7-0.2c-0.7-0.1-1.4,0-2.1,0.3c-0.2,0.1-0.3,0.2-0.5,0.3c-0.1,0-0.1,0.1-0.1,0c0,0,0-0.1,0-0.1
				C248.6,219,248.7,218.9,248.8,218.8z"/>
		</g>
		<g>
			<path class="st9" d="M255,220.8c-0.3-0.4-0.7-0.6-1.1-0.7c-1.4-0.4-2.7-0.3-3.9,0.4c-0.3,0.2-0.6,0.5-0.8,0.8
				c-0.3,0.5-0.2,1,0.1,1.4c0.3,0.3,0.6,0.5,1,0.7c1.2,0.4,2.4,0.3,3.5-0.2c0.1-0.1,0.3-0.2,0.4-0.2c0.3-0.2,0.6-0.4,0.8-0.8
				C255.3,221.7,255.3,221.3,255,220.8z"/>
			<path class="st2" d="M250.2,221.3c1.2-0.5,2.4-0.7,3.7-0.3c0.2,0,0.3,0.1,0.5,0.2c0.1,0,0.1,0.1,0.1,0.2c0,0.1-0.1,0.1-0.2,0
				c-0.3-0.2-0.6-0.2-1-0.3c-1-0.1-1.9,0-2.8,0.4c-0.2,0.1-0.4,0.3-0.6,0.4c-0.1,0-0.1,0.1-0.2,0c-0.1-0.1,0-0.1,0-0.2
				C249.9,221.5,250.1,221.4,250.2,221.3z"/>
		</g>
		<g>
			<path class="st9" d="M202.1,224.5c-0.3-0.4-0.7-0.6-1.2-0.8c-1.5-0.5-2.9-0.3-4.2,0.5c-0.4,0.2-0.7,0.5-0.9,0.9
				c-0.3,0.5-0.3,1.1,0.1,1.6c0.3,0.3,0.7,0.6,1.1,0.7c1.3,0.4,2.6,0.3,3.8-0.2c0.2-0.1,0.3-0.2,0.4-0.3c0.3-0.2,0.6-0.5,0.8-0.8
				C202.4,225.4,202.4,224.9,202.1,224.5z"/>
			<path class="st2" d="M196.9,225c1.3-0.6,2.6-0.7,4-0.4c0.2,0,0.4,0.1,0.5,0.2c0.1,0.1,0.1,0.1,0.1,0.2c0,0.1-0.1,0.1-0.2,0
				c-0.3-0.2-0.7-0.3-1.1-0.3c-1.1-0.1-2.1,0-3,0.4c-0.2,0.1-0.5,0.3-0.7,0.4c-0.1,0.1-0.1,0.1-0.2,0c-0.1-0.1-0.1-0.2,0-0.2
				C196.6,225.2,196.8,225.1,196.9,225z"/>
		</g>
		<g>
			<path class="st9" d="M183.8,220.5c-0.5-0.5-1-0.7-1.7-0.8c-2-0.3-3.8,0.2-5.4,1.4c-0.4,0.3-0.8,0.8-1,1.3c-0.3,0.8-0.1,1.5,0.5,2
				c0.5,0.4,1,0.6,1.6,0.7c1.8,0.3,3.4-0.1,4.9-1.1c0.2-0.2,0.4-0.3,0.5-0.4c0.4-0.4,0.7-0.8,0.9-1.3
				C184.5,221.7,184.4,221,183.8,220.5z"/>
			<path class="st2" d="M177.2,222.2c1.6-1,3.3-1.5,5.1-1.3c0.2,0,0.5,0.1,0.7,0.2c0.2,0,0.2,0.1,0.2,0.2c0,0.1-0.1,0.1-0.3,0.1
				c-0.5-0.2-0.9-0.2-1.4-0.2c-1.4,0-2.7,0.4-3.9,1.2c-0.3,0.2-0.5,0.4-0.8,0.7c-0.1,0.1-0.2,0.1-0.3,0.1c-0.1-0.1-0.1-0.2,0-0.3
				C176.8,222.6,177.1,222.3,177.2,222.2z"/>
		</g>
		<g>
			<path class="st9" d="M199.8,228.1c-0.4-0.5-0.9-0.8-1.5-1c-1.9-0.6-3.8-0.4-5.6,0.6c-0.5,0.3-0.9,0.7-1.2,1.1
				c-0.4,0.7-0.3,1.4,0.2,2.1c0.4,0.5,0.9,0.7,1.5,0.9c1.7,0.6,3.4,0.4,5-0.3c0.2-0.1,0.4-0.2,0.6-0.3c0.5-0.3,0.8-0.6,1.1-1.1
				C200.3,229.4,200.3,228.7,199.8,228.1z"/>
			<path class="st2" d="M193.1,228.7c1.8-0.7,3.5-1,5.2-0.5c0.2,0.1,0.5,0.2,0.7,0.3c0.1,0.1,0.2,0.2,0.1,0.3
				c-0.1,0.1-0.2,0.1-0.3,0c-0.4-0.2-0.9-0.4-1.4-0.4c-1.4-0.2-2.7,0-4,0.6c-0.3,0.1-0.6,0.4-0.9,0.6c-0.1,0.1-0.2,0.1-0.3,0
				c-0.1-0.1-0.1-0.2,0-0.3C192.6,229.1,192.9,228.9,193.1,228.7z"/>
		</g>
		<g>
			<path class="st9" d="M192.1,224.3c-0.4-0.5-0.9-0.8-1.5-1c-1.9-0.6-3.8-0.4-5.6,0.6c-0.5,0.3-0.9,0.7-1.2,1.1
				c-0.4,0.7-0.3,1.4,0.2,2.1c0.4,0.5,0.9,0.7,1.5,0.9c1.7,0.6,3.4,0.4,5-0.3c0.2-0.1,0.4-0.2,0.6-0.3c0.5-0.3,0.8-0.6,1.1-1.1
				C192.6,225.5,192.6,224.9,192.1,224.3z"/>
			<path class="st2" d="M185.4,224.9c1.8-0.7,3.5-1,5.2-0.5c0.2,0.1,0.5,0.2,0.7,0.3c0.1,0.1,0.2,0.2,0.1,0.3
				c-0.1,0.1-0.2,0.1-0.3,0c-0.4-0.2-0.9-0.4-1.4-0.4c-1.4-0.2-2.7,0-4,0.6c-0.3,0.1-0.6,0.4-0.9,0.6c-0.1,0.1-0.2,0.1-0.3,0
				c-0.1-0.1-0.1-0.2,0-0.3C184.9,225.3,185.2,225.1,185.4,224.9z"/>
		</g>
		<g>
			<path class="st9" d="M197.2,220.3c-0.3-0.4-0.7-0.6-1.2-0.8c-1.5-0.5-2.9-0.3-4.2,0.5c-0.4,0.2-0.7,0.5-0.9,0.9
				c-0.3,0.5-0.3,1.1,0.1,1.6c0.3,0.3,0.7,0.6,1.1,0.7c1.3,0.4,2.6,0.3,3.8-0.2c0.2-0.1,0.3-0.2,0.4-0.3c0.3-0.2,0.6-0.5,0.8-0.8
				C197.5,221.3,197.5,220.8,197.2,220.3z"/>
			<path class="st2" d="M192,220.8c1.3-0.6,2.6-0.7,4-0.4c0.2,0,0.4,0.1,0.5,0.2c0.1,0.1,0.1,0.1,0.1,0.2c0,0.1-0.1,0.1-0.2,0
				c-0.3-0.2-0.7-0.3-1.1-0.3c-1.1-0.1-2.1,0-3,0.4c-0.2,0.1-0.5,0.3-0.7,0.4c-0.1,0.1-0.1,0.1-0.2,0c-0.1-0.1-0.1-0.2,0-0.2
				C191.7,221.1,191.9,220.9,192,220.8z"/>
		</g>
		<g>
			<path class="st9" d="M180.8,215.6c-0.4-0.5-0.9-0.8-1.5-1c-1.9-0.6-3.8-0.4-5.6,0.6c-0.5,0.3-0.9,0.7-1.2,1.1
				c-0.4,0.7-0.3,1.4,0.2,2.1c0.4,0.5,0.9,0.7,1.5,0.9c1.7,0.6,3.4,0.4,5-0.3c0.2-0.1,0.4-0.2,0.6-0.3c0.5-0.3,0.8-0.6,1.1-1.1
				C181.3,216.9,181.3,216.2,180.8,215.6z"/>
			<path class="st2" d="M174.1,216.3c1.8-0.7,3.5-1,5.2-0.5c0.2,0.1,0.5,0.2,0.7,0.3c0.1,0.1,0.2,0.2,0.1,0.3
				c-0.1,0.1-0.2,0.1-0.3,0c-0.4-0.2-0.9-0.4-1.4-0.4c-1.4-0.2-2.7,0-4,0.6c-0.3,0.1-0.6,0.4-0.9,0.6c-0.1,0.1-0.2,0.1-0.3,0
				c-0.1-0.1-0.1-0.2,0-0.3C173.6,216.6,173.9,216.4,174.1,216.3z"/>
		</g>
		<g>
			<path class="st9" d="M177.1,210.3c-0.3-0.4-0.7-0.6-1.2-0.8c-1.5-0.5-2.9-0.3-4.2,0.5c-0.4,0.2-0.7,0.5-0.9,0.9
				c-0.3,0.5-0.3,1.1,0.1,1.6c0.3,0.3,0.7,0.6,1.1,0.7c1.3,0.4,2.6,0.3,3.8-0.2c0.2-0.1,0.3-0.2,0.4-0.3c0.3-0.2,0.6-0.5,0.8-0.8
				C177.4,211.3,177.4,210.8,177.1,210.3z"/>
			<path class="st2" d="M171.9,210.8c1.3-0.6,2.6-0.7,4-0.4c0.2,0,0.4,0.1,0.5,0.2c0.1,0.1,0.1,0.1,0.1,0.2c0,0.1-0.1,0.1-0.2,0
				c-0.3-0.2-0.7-0.3-1.1-0.3c-1.1-0.1-2.1,0-3,0.4c-0.2,0.1-0.5,0.3-0.7,0.4c-0.1,0.1-0.1,0.1-0.2,0c-0.1-0.1-0.1-0.2,0-0.2
				C171.6,211.1,171.8,210.9,171.9,210.8z"/>
		</g>
		<g>
			<path class="st9" d="M249.7,226.5c-0.3-0.4-0.7-0.6-1.2-0.8c-1.5-0.5-2.9-0.3-4.2,0.5c-0.4,0.2-0.7,0.5-0.9,0.9
				c-0.3,0.5-0.3,1.1,0.1,1.6c0.3,0.3,0.7,0.6,1.1,0.7c1.3,0.4,2.6,0.3,3.8-0.2c0.2-0.1,0.3-0.2,0.4-0.3c0.3-0.2,0.6-0.5,0.8-0.8
				C250,227.5,250,227,249.7,226.5z"/>
			<path class="st2" d="M244.5,227c1.3-0.6,2.6-0.7,4-0.4c0.2,0,0.4,0.1,0.5,0.2c0.1,0.1,0.1,0.1,0.1,0.2c0,0.1-0.1,0.1-0.2,0
				c-0.3-0.2-0.7-0.3-1.1-0.3c-1.1-0.1-2.1,0-3,0.4c-0.2,0.1-0.5,0.3-0.7,0.4c-0.1,0.1-0.1,0.1-0.2,0c-0.1-0.1-0.1-0.2,0-0.2
				C244.2,227.3,244.4,227.1,244.5,227z"/>
		</g>
		<g>
			<path class="st9" d="M189.9,216.8c-0.3-0.4-0.7-0.6-1.2-0.8c-1.5-0.5-2.9-0.3-4.2,0.5c-0.4,0.2-0.7,0.5-0.9,0.9
				c-0.3,0.5-0.3,1.1,0.1,1.6c0.3,0.3,0.7,0.6,1.1,0.7c1.3,0.4,2.6,0.3,3.8-0.2c0.2-0.1,0.3-0.2,0.4-0.3c0.3-0.2,0.6-0.5,0.8-0.8
				C190.2,217.8,190.2,217.3,189.9,216.8z"/>
			<path class="st2" d="M184.7,217.3c1.3-0.6,2.6-0.7,4-0.4c0.2,0,0.4,0.1,0.5,0.2c0.1,0.1,0.1,0.1,0.1,0.2c0,0.1-0.1,0.1-0.2,0
				c-0.3-0.2-0.7-0.3-1.1-0.3c-1.1-0.1-2.1,0-3,0.4c-0.2,0.1-0.5,0.3-0.7,0.4c-0.1,0.1-0.1,0.1-0.2,0c-0.1-0.1-0.1-0.2,0-0.2
				C184.4,217.5,184.6,217.4,184.7,217.3z"/>
		</g>
		<g>
			<path class="st9" d="M187.4,210.8c-0.4-0.5-0.9-0.8-1.5-1c-1.9-0.6-3.8-0.4-5.6,0.6c-0.5,0.3-0.9,0.7-1.2,1.1
				c-0.4,0.7-0.3,1.4,0.2,2.1c0.4,0.5,0.9,0.7,1.5,0.9c1.7,0.6,3.4,0.4,5-0.3c0.2-0.1,0.4-0.2,0.6-0.3c0.5-0.3,0.8-0.6,1.1-1.1
				C187.9,212.1,187.8,211.4,187.4,210.8z"/>
			<path class="st2" d="M180.6,211.5c1.8-0.7,3.5-1,5.2-0.5c0.2,0.1,0.5,0.2,0.7,0.3c0.1,0.1,0.2,0.2,0.1,0.3
				c-0.1,0.1-0.2,0.1-0.3,0c-0.4-0.2-0.9-0.4-1.4-0.4c-1.4-0.2-2.7,0-4,0.6c-0.3,0.1-0.6,0.4-0.9,0.6c-0.1,0.1-0.2,0.1-0.3,0
				c-0.1-0.1-0.1-0.2,0-0.3C180.2,211.8,180.5,211.6,180.6,211.5z"/>
		</g>
		<g>
			<path class="st9" d="M243.4,230.6c-0.4-0.5-0.9-0.8-1.5-1c-1.9-0.6-3.8-0.4-5.6,0.6c-0.5,0.3-0.9,0.7-1.2,1.1
				c-0.4,0.7-0.3,1.4,0.2,2.1c0.4,0.5,0.9,0.7,1.5,0.9c1.7,0.6,3.4,0.4,5-0.3c0.2-0.1,0.4-0.2,0.6-0.3c0.5-0.3,0.8-0.6,1.1-1.1
				C243.8,231.9,243.8,231.2,243.4,230.6z"/>
			<path class="st2" d="M236.6,231.3c1.8-0.7,3.5-1,5.2-0.5c0.2,0.1,0.5,0.2,0.7,0.3c0.1,0.1,0.2,0.2,0.1,0.3
				c-0.1,0.1-0.2,0.1-0.3,0c-0.4-0.2-0.9-0.4-1.4-0.4c-1.4-0.2-2.7,0-4,0.6c-0.3,0.1-0.6,0.4-0.9,0.6c-0.1,0.1-0.2,0.1-0.3,0
				c-0.1-0.1-0.1-0.2,0-0.3C236.1,231.6,236.4,231.4,236.6,231.3z"/>
		</g>
		<g>
			<path class="st9" d="M225.8,229.9c-0.3-0.4-0.7-0.6-1.2-0.8c-1.5-0.5-2.9-0.3-4.2,0.5c-0.4,0.2-0.7,0.5-0.9,0.9
				c-0.3,0.5-0.3,1.1,0.1,1.6c0.3,0.3,0.7,0.6,1.1,0.7c1.3,0.4,2.6,0.3,3.8-0.2c0.2-0.1,0.3-0.2,0.4-0.3c0.3-0.2,0.6-0.5,0.8-0.8
				C226.1,230.9,226.1,230.4,225.8,229.9z"/>
			<path class="st2" d="M220.6,230.4c1.3-0.6,2.6-0.7,4-0.4c0.2,0,0.4,0.1,0.5,0.2c0.1,0.1,0.1,0.1,0.1,0.2c0,0.1-0.1,0.1-0.2,0
				c-0.3-0.2-0.7-0.3-1.1-0.3c-1.1-0.1-2.1,0-3,0.4c-0.2,0.1-0.5,0.3-0.7,0.4c-0.1,0.1-0.1,0.1-0.2,0c-0.1-0.1-0.1-0.2,0-0.2
				C220.3,230.7,220.5,230.5,220.6,230.4z"/>
		</g>
		<g>
			<path class="st9" d="M258.3,225.5c-0.4-0.5-0.9-0.8-1.5-1c-1.9-0.6-3.8-0.4-5.6,0.6c-0.5,0.3-0.9,0.7-1.2,1.1
				c-0.4,0.7-0.3,1.4,0.2,2.1c0.4,0.5,0.9,0.7,1.5,0.9c1.7,0.6,3.4,0.4,5-0.3c0.2-0.1,0.4-0.2,0.6-0.3c0.5-0.3,0.8-0.6,1.1-1.1
				C258.8,226.7,258.8,226.1,258.3,225.5z"/>
			<path class="st2" d="M251.6,226.1c1.8-0.7,3.5-1,5.2-0.5c0.2,0.1,0.5,0.2,0.7,0.3c0.1,0.1,0.2,0.2,0.1,0.3
				c-0.1,0.1-0.2,0.1-0.3,0c-0.4-0.2-0.9-0.4-1.4-0.4c-1.4-0.2-2.7,0-4,0.6c-0.3,0.1-0.6,0.4-0.9,0.6c-0.1,0.1-0.2,0.1-0.3,0
				c-0.1-0.1-0.1-0.2,0-0.3C251.1,226.5,251.4,226.3,251.6,226.1z"/>
		</g>
		<g>
			<path class="st9" d="M234.4,231.6c-0.3-0.4-0.7-0.6-1.2-0.8c-1.5-0.5-2.9-0.3-4.2,0.5c-0.4,0.2-0.7,0.5-0.9,0.9
				c-0.3,0.5-0.3,1.1,0.1,1.6c0.3,0.3,0.7,0.6,1.1,0.7c1.3,0.4,2.6,0.3,3.8-0.2c0.2-0.1,0.3-0.2,0.4-0.3c0.3-0.2,0.6-0.5,0.8-0.8
				C234.8,232.6,234.8,232.1,234.4,231.6z"/>
			<path class="st2" d="M229.3,232.1c1.3-0.6,2.6-0.7,4-0.4c0.2,0,0.4,0.1,0.5,0.2c0.1,0.1,0.1,0.1,0.1,0.2c0,0.1-0.1,0.1-0.2,0
				c-0.3-0.2-0.7-0.3-1.1-0.3c-1.1-0.1-2.1,0-3,0.4c-0.2,0.1-0.5,0.3-0.7,0.4c-0.1,0.1-0.1,0.1-0.2,0c-0.1-0.1-0.1-0.2,0-0.2
				C229,232.3,229.2,232.2,229.3,232.1z"/>
		</g>
		<g>
			<path class="st9" d="M250.8,230.5c-0.3-0.4-0.7-0.6-1.2-0.8c-1.5-0.5-2.9-0.3-4.2,0.5c-0.4,0.2-0.7,0.5-0.9,0.9
				c-0.3,0.5-0.3,1.1,0.1,1.6c0.3,0.3,0.7,0.6,1.1,0.7c1.3,0.4,2.6,0.3,3.8-0.2c0.2-0.1,0.3-0.2,0.4-0.3c0.3-0.2,0.6-0.5,0.8-0.8
				C251.2,231.4,251.2,230.9,250.8,230.5z"/>
			<path class="st2" d="M245.7,231c1.3-0.6,2.6-0.7,4-0.4c0.2,0,0.4,0.1,0.5,0.2c0.1,0.1,0.1,0.1,0.1,0.2c0,0.1-0.1,0.1-0.2,0
				c-0.3-0.2-0.7-0.3-1.1-0.3c-1.1-0.1-2.1,0-3,0.4c-0.2,0.1-0.5,0.3-0.7,0.4c-0.1,0.1-0.1,0.1-0.2,0c-0.1-0.1-0.1-0.2,0-0.2
				C245.3,231.2,245.5,231.1,245.7,231z"/>
		</g>
		<g>
			<path class="st9" d="M182.6,204.4c-0.4-0.3-0.8-0.4-1.3-0.4c-1.4,0-2.7,0.6-3.6,1.7c-0.3,0.3-0.5,0.6-0.5,1
				c-0.1,0.6,0.1,1.1,0.6,1.4c0.4,0.2,0.8,0.3,1.2,0.3c1.3,0,2.4-0.5,3.3-1.3c0.1-0.1,0.2-0.2,0.3-0.4c0.2-0.3,0.4-0.6,0.5-1
				C183.2,205.2,183,204.7,182.6,204.4z"/>
			<path class="st2" d="M178.2,206.4c1-0.9,2.1-1.4,3.4-1.5c0.2,0,0.4,0,0.5,0c0.1,0,0.2,0.1,0.1,0.2c0,0.1-0.1,0.1-0.2,0.1
				c-0.3-0.1-0.7,0-1,0c-1,0.2-1.8,0.6-2.6,1.3c-0.2,0.2-0.3,0.4-0.5,0.6c-0.1,0.1-0.1,0.1-0.2,0.1c-0.1,0-0.1-0.1,0-0.2
				C177.9,206.7,178.1,206.5,178.2,206.4z"/>
		</g>
		<g>
			<path class="st9" d="M188.8,204.5c-0.4-0.3-0.8-0.4-1.3-0.4c-1.4,0-2.7,0.6-3.6,1.7c-0.3,0.3-0.5,0.6-0.5,1
				c-0.1,0.6,0.1,1.1,0.6,1.4c0.4,0.2,0.8,0.3,1.2,0.3c1.3,0,2.4-0.5,3.3-1.3c0.1-0.1,0.2-0.2,0.3-0.4c0.2-0.3,0.4-0.6,0.5-1
				C189.4,205.2,189.3,204.8,188.8,204.5z"/>
			<path class="st2" d="M184.4,206.4c1-0.9,2.1-1.4,3.4-1.5c0.2,0,0.4,0,0.5,0c0.1,0,0.2,0.1,0.1,0.2c0,0.1-0.1,0.1-0.2,0.1
				c-0.3-0.1-0.7,0-1,0c-1,0.2-1.8,0.6-2.6,1.3c-0.2,0.2-0.3,0.4-0.5,0.6c-0.1,0.1-0.1,0.1-0.2,0.1c-0.1,0-0.1-0.1,0-0.2
				C184.2,206.8,184.3,206.6,184.4,206.4z"/>
		</g>
		<g>
			<path class="st9" d="M192.5,200.5c-0.3-0.2-0.6-0.3-1-0.3c-1.1,0-2,0.4-2.7,1.3c-0.2,0.2-0.3,0.5-0.4,0.8c-0.1,0.4,0.1,0.8,0.4,1
				c0.3,0.2,0.6,0.2,0.9,0.2c1,0,1.8-0.4,2.5-1c0.1-0.1,0.2-0.2,0.2-0.3c0.2-0.2,0.3-0.5,0.4-0.8
				C192.9,201.1,192.8,200.8,192.5,200.5z"/>
			<path class="st2" d="M189.1,202c0.8-0.7,1.6-1.1,2.6-1.1c0.1,0,0.3,0,0.4,0c0.1,0,0.1,0.1,0.1,0.1c0,0.1-0.1,0.1-0.1,0.1
				c-0.3,0-0.5,0-0.8,0c-0.7,0.1-1.4,0.5-2,1c-0.1,0.1-0.2,0.3-0.4,0.4c0,0.1-0.1,0.1-0.1,0.1c-0.1,0-0.1-0.1,0-0.1
				C188.9,202.3,189,202.1,189.1,202z"/>
		</g>
		<g>
			<path class="st9" d="M187.5,201.1c-0.3-0.2-0.6-0.3-1-0.3c-1.1,0-2,0.4-2.7,1.3c-0.2,0.2-0.3,0.5-0.4,0.8c-0.1,0.4,0.1,0.8,0.4,1
				c0.3,0.2,0.6,0.2,0.9,0.2c1,0,1.8-0.4,2.5-1c0.1-0.1,0.2-0.2,0.2-0.3c0.2-0.2,0.3-0.5,0.4-0.8C188,201.7,187.9,201.3,187.5,201.1
				z"/>
			<path class="st2" d="M184.2,202.6c0.8-0.7,1.6-1.1,2.6-1.1c0.1,0,0.3,0,0.4,0c0.1,0,0.1,0.1,0.1,0.1c0,0.1-0.1,0.1-0.1,0.1
				c-0.3,0-0.5,0-0.8,0c-0.7,0.1-1.4,0.5-2,1c-0.1,0.1-0.2,0.3-0.4,0.4c0,0.1-0.1,0.1-0.1,0.1c-0.1,0-0.1-0.1,0-0.1
				C184,202.8,184.1,202.7,184.2,202.6z"/>
		</g>
	</g>
</g>
</svg>
