<?xml version="1.0" encoding="utf-8"?>
<!-- Generator: Adobe Illustrator 22.0.0, SVG Export Plug-In . SVG Version: 6.00 Build 0)  -->
<svg version="1.1" id="Layer_1" xmlns="http://www.w3.org/2000/svg" xmlns:xlink="http://www.w3.org/1999/xlink" x="0px" y="0px"
	 viewBox="0 0 469 360.2" style="enable-background:new 0 0 469 360.2;" xml:space="preserve">
<style type="text/css">
	.st0{fill:none;stroke:#FFFFFF;stroke-width:6.5388;stroke-miterlimit:10;}
	.st1{fill:#FFFFFF;}
	.st2{fill:#105F28;}
	.st3{stroke:#FFFFFF;stroke-width:4.541;stroke-miterlimit:10;}
	.st4{fill:none;stroke:#FFFFFF;stroke-width:4.3592;stroke-miterlimit:10;}
	.st5{fill:none;stroke:#FFFFFF;stroke-width:3.2694;stroke-linecap:round;stroke-miterlimit:10;}
	.st6{fill:none;stroke:#FFFFFF;stroke-width:7.2002;stroke-miterlimit:10;}
	.st7{fill:none;stroke:#FFFFFF;stroke-width:3.9641;stroke-linecap:round;stroke-miterlimit:10;}
	.st8{fill:none;stroke:#105F28;stroke-width:3.8932;stroke-miterlimit:10;}
	.st9{fill:none;stroke:#105F28;stroke-width:0.625;stroke-miterlimit:10;}
</style>
<g>
	<path class="st8" d="M391.7,101.8c0,1.5-0.4,2.8-1,4h5.1v24.9h-27.2v-14.3c-38.7,0-105,22.9-105,22.9s13.1,10.7,13.1,35.9h2.1v4.4
		h-12.1l0-4.1h0.8c0.8,0,1.5-0.7,1.5-1.5c0.1-4.2-0.9-8.4-3-12.1c-1.9-3.2-4.6-5.9-7.8-7.8c-6.1-3.6-14-5-21-5.4
		c-7.4-0.4-14.9,0.4-22,2.3c-3.2,0.9-6.3,2-9.1,3.8c-3.3,2.3-6,5.3-7.6,9c-1.6,3.5-2.4,7.7-1.9,11.6h2.2l0,4.1h-12.1v-4.4h2.1
		c0-25.1,13.1-35.9,13.1-35.9s-66.4-22.9-105-22.9v14.3H69.4v-24.9h5.1c-0.6-1.2-1-2.6-1-4c0-4.4,3.2-8.1,7.4-8.8v-2.1H9.2
		c-0.2,0-0.3-0.3-0.2-0.4l4-3.5c0,0,0.1-0.1,0.2-0.1h67.7v-3.8h3.5v3.8h73.4c0.2,0,0.3,0.3,0.2,0.4l-4,3.5c0,0-0.1,0.1-0.2,0.1H84.4
		v2.2c4,0.9,6.9,4.5,6.9,8.7c0,1.5-0.4,2.8-1,4h6.3v4.1h108.5c1.8-15.5,13.4-25.2,27.5-25.2c14.1,0,25.7,9.6,27.5,25.8h108.5v-4.7
		h6.3c-0.6-1.2-1-2.6-1-4"/>
	
		<rect x="176.7" y="211.6" transform="matrix(1 -4.989907e-03 4.989907e-03 1 -1.2613 1.0929)" class="st8" width="83.4" height="83.4"/>
	
		<rect x="205.1" y="211.5" transform="matrix(1 -4.989907e-03 4.989907e-03 1 -1.2602 1.2347)" class="st8" width="83.4" height="83.4"/>
	
		<rect x="197" y="235.4" transform="matrix(1 -4.989907e-03 4.989907e-03 1 -1.2056 1.0973)" class="st8" width="44.5" height="13.5"/>
	
		<rect x="249.1" y="268.3" transform="matrix(1 -4.989907e-03 4.989907e-03 1 -1.3545 1.3224)" class="st8" width="30.4" height="7.5"/>
	<path class="st8" d="M192.6,179.2c-0.1,16,40.7,33.2,40.7,33.2s40.1-17.6,40.2-33.7"/>
	<polyline class="st8" points="69.4,130.8 61.5,139.6 104.2,139.6 96.6,130.8 	"/>
	<polyline class="st8" points="369.4,130.8 361.5,139.6 404.2,139.6 396.7,130.8 	"/>
	<path class="st8" d="M72.9,148.2c0,5.9,4.8,10.7,10.7,10.7s10.7-4.8,10.7-10.7"/>
	<path class="st8" d="M63,148.2c0,11.4,9.2,20.6,20.6,20.6s20.6-9.2,20.6-20.6"/>
	<path class="st8" d="M51.6,148.2c0,17.7,14.3,32,32,32s32-14.3,32-32"/>
	<path class="st8" d="M372.4,148.2c0,5.9,4.8,10.7,10.7,10.7c5.9,0,10.7-4.8,10.7-10.7"/>
	<path class="st8" d="M362.4,148.2c0,11.4,9.2,20.6,20.6,20.6s20.6-9.2,20.6-20.6"/>
	<path class="st8" d="M351,148.2c0,17.7,14.3,32,32,32s32-14.3,32-32"/>
	<path class="st8" d="M373.8,101.8c0-4.4,3.2-8.1,7.4-8.8v-2.1h-71.4c-0.3,0-0.5-0.4-0.2-0.6l3.7-3.3c0.1-0.1,0.2-0.1,0.2-0.1h67.7
		v-3.8h3.5v3.8h73.6c0.2,0,0.2,0.2,0.1,0.3l-4.1,3.6c0,0-0.1,0-0.1,0h-69.4v2.2c4,0.9,6.9,4.5,6.9,8.7"/>
</g>
</svg>
