<?xml version="1.0" encoding="utf-8"?>
<!-- Generator: Adobe Illustrator 22.0.0, SVG Export Plug-In . SVG Version: 6.00 Build 0)  -->
<svg version="1.1" id="Layer_1" xmlns="http://www.w3.org/2000/svg" xmlns:xlink="http://www.w3.org/1999/xlink" x="0px" y="0px"
	 viewBox="0 0 469 360.2" style="enable-background:new 0 0 469 360.2;" xml:space="preserve">
<style type="text/css">
	.st0{fill:none;stroke:#FFFFFF;stroke-width:6.5388;stroke-miterlimit:10;}
	.st1{fill:#FFFFFF;}
	.st2{fill:#105F28;}
	.st3{stroke:#FFFFFF;stroke-width:4.541;stroke-miterlimit:10;}
	.st4{fill:none;stroke:#FFFFFF;stroke-width:4.3592;stroke-miterlimit:10;}
	.st5{fill:none;stroke:#FFFFFF;stroke-width:3.2694;stroke-linecap:round;stroke-miterlimit:10;}
	.st6{fill:none;stroke:#FFFFFF;stroke-width:7.2002;stroke-miterlimit:10;}
	.st7{fill:none;stroke:#FFFFFF;stroke-width:3.9641;stroke-linecap:round;stroke-miterlimit:10;}
	.st8{fill:none;stroke:#105F28;stroke-width:3.8932;stroke-miterlimit:10;}
	.st9{fill:none;stroke:#105F28;stroke-width:0.625;stroke-miterlimit:10;}
</style>
<g>
	<path class="st8" d="M272.7,331.7c-17.9,0-32.4-18.1-32.4-40.4c0-2.7,0.2-5.3,0.6-7.8C258.1,284,272,305.2,272.7,331.7z"/>
	<path class="st8" d="M272.7,331.7c17.9,0,32.4-18.1,32.4-40.4c0-2.7-0.2-5.3-0.6-7.8C287.3,284,273.4,305.2,272.7,331.7z"/>
	<path class="st8" d="M288.4,284.3c0,2-0.1,4.2-0.3,6.5c-9,8.5-15,23.6-15.5,40.9c-0.4-17.1-6.4-32-15.2-40.6
		c-0.2-2.4-0.3-4.6-0.3-6.8c0-18.4,7-33.4,15.6-33.4C281.4,250.9,288.4,265.9,288.4,284.3z"/>
	<line class="st8" x1="266.9" y1="266.3" x2="270.6" y2="266.3"/>
	<line class="st8" x1="266.9" y1="272.9" x2="270.6" y2="272.9"/>
	<line class="st8" x1="266.9" y1="279.5" x2="270.6" y2="279.5"/>
	<line class="st8" x1="266.9" y1="286.1" x2="270.6" y2="286.1"/>
	<line class="st8" x1="266.9" y1="292.8" x2="270.6" y2="292.8"/>
	<line class="st8" x1="276" y1="270.2" x2="279.7" y2="270.2"/>
	<line class="st8" x1="276" y1="276.9" x2="279.7" y2="276.9"/>
	<line class="st8" x1="276" y1="283.5" x2="279.7" y2="283.5"/>
	<line class="st8" x1="276" y1="290.1" x2="279.7" y2="290.1"/>
	<line class="st8" x1="276" y1="296.7" x2="279.7" y2="296.7"/>
</g>
<g>
	<path class="st8" d="M344.8,331.7c-17.9,0-32.4-18.1-32.4-40.4c0-2.7,0.2-5.3,0.6-7.8C330.2,284,344.1,305.2,344.8,331.7z"/>
	<path class="st8" d="M344.8,331.7c17.9,0,32.4-18.1,32.4-40.4c0-2.7-0.2-5.3-0.6-7.8C359.4,284,345.4,305.2,344.8,331.7z"/>
	<path class="st8" d="M360.5,284.3c0,2-0.1,4.2-0.3,6.5c-9,8.5-15,23.6-15.5,40.9c-0.4-17.1-6.4-32-15.2-40.6
		c-0.2-2.4-0.3-4.6-0.3-6.8c0-18.4,7-33.4,15.6-33.4C353.5,250.9,360.5,265.9,360.5,284.3z"/>
	<line class="st8" x1="338.9" y1="266.3" x2="342.7" y2="266.3"/>
	<line class="st8" x1="338.9" y1="272.9" x2="342.7" y2="272.9"/>
	<line class="st8" x1="338.9" y1="279.5" x2="342.7" y2="279.5"/>
	<line class="st8" x1="338.9" y1="286.1" x2="342.7" y2="286.1"/>
	<line class="st8" x1="338.9" y1="292.8" x2="342.7" y2="292.8"/>
	<line class="st8" x1="348.1" y1="270.2" x2="351.8" y2="270.2"/>
	<line class="st8" x1="348.1" y1="276.9" x2="351.8" y2="276.9"/>
	<line class="st8" x1="348.1" y1="283.5" x2="351.8" y2="283.5"/>
	<line class="st8" x1="348.1" y1="290.1" x2="351.8" y2="290.1"/>
	<line class="st8" x1="348.1" y1="296.7" x2="351.8" y2="296.7"/>
</g>
<g>
	<path class="st8" d="M198.4,331.7c-17.9,0-32.4-18.1-32.4-40.4c0-2.7,0.2-5.3,0.6-7.8C183.8,284,197.7,305.2,198.4,331.7z"/>
	<path class="st8" d="M198.4,331.7c17.9,0,32.4-18.1,32.4-40.4c0-2.7-0.2-5.3-0.6-7.8C213,284,199.1,305.2,198.4,331.7z"/>
	<path class="st8" d="M214.2,284.3c0,2-0.1,4.2-0.3,6.5c-9,8.5-15,23.6-15.5,40.9c-0.4-17.1-6.4-32-15.2-40.6
		c-0.2-2.4-0.3-4.6-0.3-6.8c0-18.4,7-33.4,15.6-33.4C207.2,250.9,214.2,265.9,214.2,284.3z"/>
	<line class="st8" x1="192.6" y1="266.3" x2="196.3" y2="266.3"/>
	<line class="st8" x1="192.6" y1="272.9" x2="196.3" y2="272.9"/>
	<line class="st8" x1="192.6" y1="279.5" x2="196.3" y2="279.5"/>
	<line class="st8" x1="192.6" y1="286.1" x2="196.3" y2="286.1"/>
	<line class="st8" x1="192.6" y1="292.8" x2="196.3" y2="292.8"/>
	<line class="st8" x1="201.7" y1="270.2" x2="205.4" y2="270.2"/>
	<line class="st8" x1="201.7" y1="276.9" x2="205.4" y2="276.9"/>
	<line class="st8" x1="201.7" y1="283.5" x2="205.4" y2="283.5"/>
	<line class="st8" x1="201.7" y1="290.1" x2="205.4" y2="290.1"/>
	<line class="st8" x1="201.7" y1="296.7" x2="205.4" y2="296.7"/>
</g>
<g>
	<path class="st8" d="M122.4,331.7c-17.9,0-32.4-18.1-32.4-40.4c0-2.7,0.2-5.3,0.6-7.8C107.8,284,121.8,305.2,122.4,331.7z"/>
	<path class="st8" d="M122.4,331.7c17.9,0,32.4-18.1,32.4-40.4c0-2.7-0.2-5.3-0.6-7.8C137,284,123.1,305.2,122.4,331.7z"/>
	<path class="st8" d="M138.2,284.3c0,2-0.1,4.2-0.3,6.5c-9,8.5-15,23.6-15.5,40.9c-0.4-17.1-6.4-32-15.2-40.6
		c-0.2-2.4-0.3-4.6-0.3-6.8c0-18.4,7-33.4,15.6-33.4C131.2,250.9,138.2,265.9,138.2,284.3z"/>
	<line class="st8" x1="116.6" y1="266.3" x2="120.3" y2="266.3"/>
	<line class="st8" x1="116.6" y1="272.9" x2="120.3" y2="272.9"/>
	<line class="st8" x1="116.6" y1="279.5" x2="120.3" y2="279.5"/>
	<line class="st8" x1="116.6" y1="286.1" x2="120.3" y2="286.1"/>
	<line class="st8" x1="116.6" y1="292.8" x2="120.3" y2="292.8"/>
	<line class="st8" x1="125.7" y1="270.2" x2="129.5" y2="270.2"/>
	<line class="st8" x1="125.7" y1="276.9" x2="129.5" y2="276.9"/>
	<line class="st8" x1="125.7" y1="283.5" x2="129.5" y2="283.5"/>
	<line class="st8" x1="125.7" y1="290.1" x2="129.5" y2="290.1"/>
	<line class="st8" x1="125.7" y1="296.7" x2="129.5" y2="296.7"/>
</g>
<path class="st8" d="M377.2,224.8h-98c-4.9,0-8.8-3.9-8.8-8.8v-16.6c0-4.9,3.9-8.8,8.8-8.8h98c4.9,0,8.8,3.9,8.8,8.8V216
	C386,220.8,382,224.8,377.2,224.8z"/>
<line class="st8" x1="63.8" y1="200.7" x2="111.8" y2="200.7"/>
<line class="st8" x1="63.8" y1="207.7" x2="111.8" y2="207.7"/>
<line class="st8" x1="63.8" y1="214.6" x2="111.8" y2="214.6"/>
<line class="st8" x1="349.8" y1="200.7" x2="366.9" y2="200.7"/>
<line class="st8" x1="349.8" y1="207.7" x2="366.9" y2="207.7"/>
<line class="st8" x1="349.8" y1="214.6" x2="366.9" y2="214.6"/>
<rect x="123.2" y="200.7" class="st8" width="18.2" height="14"/>
<path class="st2" d="M161,214.6h-4.3c-3.9,0-7-3.1-7-7v0c0-3.9,3.1-7,7-7h4.3c3.9,0,7,3.1,7,7v0C168,211.5,164.8,214.6,161,214.6z"
	/>
<line class="st8" x1="102.6" y1="224.2" x2="161.6" y2="224.2"/>
<rect x="323.4" y="200.7" class="st8" width="18.2" height="14"/>
<line class="st8" x1="302.8" y1="224.8" x2="361.8" y2="224.8"/>
<polyline class="st8" points="235.3,152 132.1,152 132.1,200.7 "/>
<polyline class="st8" points="332.5,199 332.5,165.9 235.2,165.9 235.2,142.3 "/>
<line class="st8" x1="235.3" y1="152" x2="235.3" y2="108"/>
<circle class="st8" cx="297.7" cy="207.7" r="7.7"/>
<circle class="st2" cx="312.4" cy="203.2" r="3.2"/>
<circle class="st2" cx="312.4" cy="212.1" r="3.2"/>
<path class="st8" d="M341.6,55.9c0-2.9-2.1-5.4-4.9-5.9v-1.4h49.6l1.9-2.7h-51.5v-2.5h-2.4v2.5h-43.1l-1.9,2.7h45v1.5
	c-2.6,0.6-4.6,3-4.6,5.8c0,1,0.2,1.9,0.6,2.7h-4.2v0.7h-72.4c-1.2-8.3-8.9-14.7-18.3-14.7s-17.2,6.4-18.3,14.7h-72.4v-0.7h-4.2
	c0.4-0.8,0.6-1.7,0.6-2.7c0-2.8-2-5.2-4.6-5.8v-1.5h48l2-2.7h-49.9v-2.5h-2.4v2.5H89.5l-2,2.7h46.7V50c-2.8,0.5-4.9,2.9-4.9,5.9
	c0,1,0.2,1.9,0.6,2.7h-3.4v8.6h18.2v-1.5c25.8,0,70.1,15.3,70.1,15.3s-8.7,7.2-8.7,23.9h-1.4v2.1h8.1l0-1.9h-1.4
	c0,0-2.1-14.8,16.3-17.2c2.1,1.2,2.4,2.9,2.3,4.2c-2.5,1.8-4.1,4.6-4.1,7.9c0,5.4,4.3,9.7,9.7,9.7s9.7-4.3,9.7-9.7
	c0-3.3-1.6-6.2-4.1-7.9c-0.1-1.3,0.2-3,2.3-4.2c18.4,2.4,16.3,17.2,16.3,17.2h-1.4l0,1.9h8.1v-2.1h-1.4c0-16.8-8.7-23.9-8.7-23.9
	s44.3-15.3,70.1-15.3v1.5h18.2v-8.6H341C341.4,57.8,341.6,56.8,341.6,55.9z M242.4,100c0,3.8-3.1,6.9-6.9,6.9s-6.9-3.1-6.9-6.9
	c0-3.8,3.1-6.9,6.9-6.9S242.4,96.2,242.4,100z"/>
</svg>
